<svg id="svg" version="1.1" xmlns="http://www.w3.org/2000/svg" xmlns:xlink="http://www.w3.org/1999/xlink" width="400" height="71.2430426716141" viewBox="0, 0, 400,71.2430426716141"><g id="svgg"><path id="path0" d="M7.107 5.210 C 7.027 5.517,7.037 5.518,7.345 5.240 C 7.730 4.891,7.730 4.889,7.429 4.889 C 7.298 4.889,7.153 5.033,7.107 5.210 M7.944 5.111 C 7.883 5.172,7.833 5.472,7.833 5.778 C 7.833 6.222,7.767 6.333,7.500 6.333 C 7.228 6.333,7.167 6.444,7.167 6.936 C 7.167 7.484,7.130 7.532,6.763 7.462 C 6.385 7.389,6.361 7.429,6.388 8.067 C 6.414 8.697,6.381 8.754,5.958 8.803 C 5.524 8.853,5.505 8.890,5.604 9.511 C 5.705 10.138,5.690 10.167,5.259 10.167 C 4.831 10.167,4.811 10.204,4.860 10.875 C 4.905 11.500,4.867 11.590,4.539 11.637 C 4.236 11.680,4.167 11.797,4.167 12.262 C 4.167 12.884,4.129 12.914,3.671 12.669 C 3.390 12.519,3.365 12.574,3.390 13.294 C 3.415 14.031,3.391 14.080,3.029 14.029 C 2.668 13.978,2.645 14.024,2.696 14.696 C 2.747 15.374,2.723 15.420,2.291 15.469 C 1.859 15.519,1.839 15.558,1.936 16.164 C 2.029 16.746,2.002 16.810,1.644 16.861 C 1.324 16.906,1.241 17.030,1.199 17.525 C 1.163 17.961,1.057 18.156,0.824 18.217 C 0.608 18.274,0.500 18.446,0.500 18.734 C 0.500 19.008,0.408 19.167,0.250 19.167 C 0.061 19.167,0.000 19.370,0.000 20.000 C 0.000 20.630,0.061 20.833,0.250 20.833 C 0.404 20.833,0.500 20.989,0.500 21.238 C 0.500 21.532,0.604 21.658,0.875 21.697 C 1.197 21.742,1.243 21.837,1.203 22.363 C 1.162 22.891,1.208 22.983,1.536 23.029 C 1.855 23.075,1.917 23.184,1.917 23.708 C 1.917 24.240,1.971 24.334,2.281 24.333 C 2.570 24.333,2.656 24.445,2.698 24.875 C 2.739 25.298,2.836 25.429,3.141 25.472 C 3.490 25.521,3.520 25.589,3.425 26.097 C 3.327 26.621,3.351 26.667,3.731 26.667 C 4.218 26.667,4.439 27.157,4.176 27.649 C 3.929 28.110,3.944 28.138,4.458 28.197 C 4.794 28.236,4.932 28.355,4.972 28.644 C 5.004 28.869,5.172 29.076,5.363 29.126 C 5.653 29.202,5.684 29.306,5.594 29.905 C 5.493 30.577,5.504 30.597,5.953 30.590 C 6.383 30.584,6.417 30.631,6.417 31.241 C 6.417 31.803,6.477 31.915,6.833 32.006 C 7.063 32.065,7.234 32.192,7.214 32.289 C 7.062 33.037,7.079 33.711,7.257 33.955 C 7.442 34.207,7.457 34.183,7.377 33.767 C 7.309 33.407,7.343 33.309,7.518 33.370 C 7.646 33.413,7.747 33.643,7.744 33.879 C 7.741 34.116,7.779 34.306,7.828 34.302 C 8.597 34.235,8.688 34.325,8.580 35.049 C 8.475 35.751,8.482 35.765,8.945 35.758 C 9.394 35.750,9.415 35.783,9.375 36.430 C 9.338 37.032,9.375 37.108,9.695 37.097 C 9.967 37.087,10.092 37.217,10.200 37.625 C 10.279 37.926,10.452 38.167,10.588 38.167 C 10.723 38.167,10.833 38.279,10.833 38.417 C 10.833 38.718,10.692 38.705,13.624 38.669 L 15.998 38.639 16.161 39.070 C 16.251 39.306,16.433 39.500,16.566 39.500 C 16.745 39.500,16.804 39.720,16.798 40.375 C 16.794 40.856,16.846 41.870,16.913 42.628 C 17.046 44.122,16.908 44.532,16.327 44.380 C 16.102 44.321,16.000 44.378,16.000 44.564 C 16.000 44.712,15.866 44.833,15.702 44.833 C 15.486 44.833,15.405 44.960,15.410 45.292 C 15.416 45.721,15.377 45.747,14.792 45.695 C 14.224 45.646,14.167 45.678,14.167 46.049 C 14.167 46.370,14.059 46.480,13.667 46.558 C 13.373 46.617,13.167 46.763,13.167 46.913 C 13.167 47.057,13.020 47.167,12.828 47.167 C 12.178 47.167,12.183 49.045,12.833 49.215 C 13.095 49.283,13.135 49.402,13.056 49.886 C 12.967 50.436,12.991 50.478,13.439 50.529 C 13.936 50.586,14.022 50.853,13.779 51.590 C 13.684 51.878,13.737 51.929,14.125 51.923 C 14.522 51.918,14.590 51.989,14.636 52.458 C 14.712 53.249,15.572 53.267,15.729 52.482 C 15.810 52.074,15.894 51.988,16.124 52.077 C 17.014 52.421,17.266 52.379,17.258 51.889 C 17.250 51.447,17.290 51.419,17.875 51.453 C 18.395 51.484,18.500 51.436,18.500 51.168 C 18.500 50.788,18.931 50.500,19.500 50.500 C 19.592 50.500,19.667 50.387,19.667 50.250 C 19.667 50.111,19.815 50.000,20.000 50.000 C 20.521 50.000,20.482 48.878,19.958 48.803 C 19.628 48.756,19.589 48.665,19.628 48.042 C 19.669 47.392,19.639 47.333,19.271 47.333 C 18.938 47.333,18.858 47.236,18.803 46.762 C 18.766 46.447,18.796 46.227,18.868 46.272 C 18.941 46.316,19.000 46.199,19.000 46.010 C 19.000 45.755,18.893 45.667,18.583 45.667 L 18.167 45.667 18.167 43.000 C 18.167 40.474,18.184 40.333,18.489 40.333 C 18.729 40.333,18.830 40.473,18.879 40.875 L 18.947 41.417 18.973 40.875 C 18.994 40.453,19.074 40.333,19.333 40.333 C 19.556 40.333,19.667 40.222,19.667 40.000 C 19.667 39.677,19.788 39.666,23.458 39.637 C 25.544 39.620,26.894 39.578,26.458 39.544 C 25.271 39.451,25.361 39.000,26.568 39.000 C 27.387 39.000,27.461 39.030,27.382 39.333 C 27.306 39.621,27.377 39.667,27.897 39.667 C 28.332 39.667,28.500 39.739,28.500 39.927 C 28.500 40.069,28.556 40.153,28.625 40.113 C 28.902 39.950,29.500 40.335,29.500 40.677 C 29.500 40.891,29.632 41.066,29.832 41.118 C 30.113 41.191,30.149 41.300,30.066 41.819 C 29.972 42.406,29.988 42.432,30.442 42.424 C 30.897 42.417,30.915 42.446,30.872 43.125 C 30.831 43.777,30.860 43.833,31.234 43.833 C 31.550 43.833,31.665 43.944,31.750 44.333 C 31.812 44.616,31.968 44.833,32.109 44.833 C 32.264 44.833,32.346 44.973,32.327 45.208 C 32.274 45.865,32.325 45.976,32.708 46.030 C 33.010 46.073,33.094 46.206,33.135 46.708 L 33.187 47.333 32.427 47.333 C 31.692 47.333,31.667 47.316,31.667 46.831 L 31.667 46.328 30.297 46.372 C 29.059 46.412,28.922 46.386,28.863 46.095 C 28.778 45.680,28.352 45.256,28.015 45.253 C 27.807 45.251,27.756 45.081,27.777 44.463 C 27.801 43.749,27.770 43.679,27.443 43.713 C 27.160 43.742,27.072 43.648,27.029 43.273 C 26.994 42.966,26.857 42.765,26.645 42.709 C 26.434 42.654,26.325 42.496,26.343 42.270 C 26.417 41.314,26.349 41.167,25.833 41.167 C 25.411 41.167,25.333 41.231,25.333 41.583 C 25.333 41.992,25.118 42.100,24.500 41.999 C 23.879 41.897,23.767 41.942,23.671 42.333 C 23.608 42.595,23.433 42.770,23.202 42.803 C 22.999 42.833,22.833 42.966,22.833 43.100 C 22.833 43.415,22.389 43.585,22.123 43.373 C 21.804 43.118,21.417 43.371,21.417 43.833 C 21.417 44.136,21.316 44.264,21.050 44.302 C 20.412 44.393,20.358 45.500,20.991 45.500 C 21.221 45.500,21.276 45.643,21.264 46.208 C 21.251 46.864,21.280 46.912,21.650 46.860 C 22.033 46.806,22.045 46.834,21.946 47.558 C 21.846 48.285,21.859 48.314,22.296 48.364 C 22.727 48.414,22.748 48.456,22.700 49.208 L 22.650 50.000 23.563 50.000 C 24.384 50.000,24.482 49.962,24.530 49.625 C 24.568 49.361,24.714 49.235,25.025 49.199 C 25.294 49.168,25.499 49.022,25.551 48.824 C 25.614 48.580,25.781 48.500,26.223 48.500 C 26.700 48.500,26.820 48.431,26.863 48.135 C 26.914 47.791,27.013 47.767,28.583 47.722 C 29.500 47.696,30.512 47.654,30.833 47.629 C 31.375 47.587,31.416 47.617,31.409 48.055 C 31.402 48.523,31.409 48.526,32.326 48.474 C 32.867 48.444,33.239 48.490,33.223 48.586 C 33.208 48.676,33.142 49.040,33.076 49.394 L 32.956 50.038 34.186 49.978 C 35.098 49.932,35.412 49.971,35.400 50.125 C 35.391 50.240,35.372 50.783,35.358 51.333 L 35.333 52.333 34.783 52.333 C 34.245 52.333,33.833 52.576,33.833 52.892 C 33.833 52.980,33.983 52.916,34.167 52.750 C 34.494 52.454,34.500 52.459,34.500 53.048 C 34.500 53.377,34.413 53.701,34.308 53.766 C 34.196 53.835,34.160 53.812,34.222 53.711 C 34.281 53.616,34.204 53.436,34.050 53.311 C 33.808 53.115,33.791 53.118,33.922 53.333 C 34.074 53.581,34.069 53.885,33.904 54.641 C 33.834 54.962,33.745 55.014,33.407 54.929 C 33.008 54.829,32.998 54.847,33.102 55.496 C 33.211 56.176,33.139 56.260,32.521 56.174 C 32.340 56.149,32.317 56.309,32.410 56.929 L 32.528 57.715 31.889 57.623 C 31.537 57.572,31.344 57.567,31.458 57.612 C 31.826 57.757,31.724 59.000,31.344 59.000 C 31.117 59.000,31.007 59.135,30.969 59.458 C 30.927 59.829,30.834 59.916,30.483 59.912 C 30.060 59.907,30.051 59.931,30.123 60.787 C 30.195 61.642,30.185 61.667,29.765 61.667 C 29.492 61.667,29.333 61.759,29.333 61.917 C 29.333 62.070,29.489 62.167,29.737 62.167 C 30.051 62.167,30.165 62.279,30.252 62.678 C 30.314 62.959,30.470 63.230,30.599 63.279 C 30.746 63.335,30.833 63.616,30.833 64.028 C 30.833 64.390,30.890 64.653,30.958 64.613 C 31.027 64.572,31.261 64.606,31.477 64.688 C 31.868 64.836,31.884 64.981,31.584 65.708 C 31.485 65.949,31.554 66.000,31.982 66.000 C 32.410 66.000,32.500 66.066,32.500 66.380 C 32.500 66.588,32.650 66.888,32.833 67.045 C 33.030 67.213,33.167 67.536,33.167 67.832 C 33.167 68.531,34.080 68.582,34.340 67.898 C 34.472 67.551,34.591 67.478,34.920 67.541 C 35.362 67.626,35.436 67.401,35.178 66.750 C 34.989 66.271,35.142 66.000,35.603 66.000 C 35.977 66.000,35.997 65.956,35.897 65.333 C 35.796 64.698,35.811 64.667,36.229 64.667 C 36.507 64.667,36.667 64.575,36.667 64.417 C 36.667 64.260,36.825 64.167,37.088 64.167 C 37.492 64.167,37.508 64.129,37.463 63.292 C 37.421 62.493,37.450 62.412,37.793 62.363 C 38.124 62.316,38.165 62.225,38.127 61.613 C 38.085 60.951,38.106 60.917,38.547 60.924 C 38.999 60.930,39.007 60.913,38.903 60.215 C 38.800 59.528,38.812 59.500,39.231 59.500 C 39.680 59.500,39.732 59.382,39.674 58.480 C 39.654 58.167,39.743 58.019,39.990 57.954 C 40.246 57.887,40.333 57.730,40.333 57.333 C 40.333 56.947,40.422 56.779,40.657 56.717 C 40.855 56.666,41.001 56.461,41.032 56.191 C 41.074 55.831,41.168 55.751,41.542 55.757 C 42.023 55.763,42.099 55.553,41.842 54.917 C 41.678 54.509,41.921 54.167,42.376 54.167 C 42.666 54.167,42.698 54.088,42.614 53.576 C 42.531 53.059,42.570 52.965,42.926 52.830 C 43.210 52.722,43.333 52.547,43.333 52.254 C 43.333 51.916,43.416 51.833,43.750 51.833 C 44.422 51.833,44.382 50.380,43.708 50.303 C 43.277 50.253,43.253 50.208,43.305 49.526 C 43.354 48.872,43.328 48.813,43.032 48.906 C 42.784 48.985,42.682 48.916,42.607 48.617 C 42.552 48.401,42.320 48.138,42.090 48.033 C 41.724 47.867,41.692 47.788,41.836 47.410 C 42.093 46.733,42.035 46.570,41.542 46.577 C 41.106 46.583,41.086 46.549,41.128 45.876 C 41.169 45.230,41.140 45.173,40.795 45.210 C 40.491 45.242,40.406 45.156,40.362 44.773 C 40.328 44.471,40.190 44.265,39.987 44.212 C 39.740 44.147,39.667 43.979,39.667 43.481 C 39.667 42.894,39.626 42.833,39.231 42.833 C 38.810 42.833,38.799 42.808,38.906 42.097 C 39.010 41.402,38.996 41.366,38.658 41.454 C 38.254 41.560,38.006 41.280,38.003 40.714 C 38.001 40.454,37.926 40.372,37.750 40.440 C 37.613 40.492,37.500 40.461,37.500 40.371 C 37.500 40.280,37.650 40.166,37.833 40.118 C 38.226 40.016,38.283 39.667,37.907 39.667 C 37.753 39.667,37.695 39.745,37.766 39.859 C 37.840 39.978,37.812 40.006,37.692 39.933 C 37.587 39.867,37.500 39.673,37.500 39.501 C 37.500 39.284,37.360 39.173,37.042 39.136 C 36.615 39.087,36.587 39.037,36.637 38.402 C 36.685 37.782,36.655 37.722,36.303 37.736 C 36.018 37.746,35.902 37.646,35.861 37.356 C 35.829 37.129,35.661 36.924,35.467 36.873 C 35.179 36.798,35.140 36.683,35.206 36.096 C 35.280 35.445,35.261 35.408,34.850 35.412 C 34.444 35.416,34.420 35.373,34.468 34.720 C 34.517 34.066,34.491 34.021,34.052 33.970 C 33.559 33.914,33.542 33.849,33.760 32.853 C 33.873 32.341,33.856 32.304,33.582 32.458 C 33.370 32.576,33.125 32.564,32.765 32.418 C 32.482 32.304,32.156 32.244,32.042 32.286 C 31.927 32.327,31.833 32.280,31.833 32.181 C 31.833 32.081,31.938 32.000,32.066 32.000 C 32.193 32.000,32.341 31.888,32.394 31.750 C 32.476 31.535,32.212 31.505,30.536 31.532 L 28.583 31.564 30.083 31.657 C 31.339 31.735,31.591 31.798,31.632 32.042 C 31.713 32.522,27.911 32.481,27.785 32.000 C 27.733 31.800,27.558 31.667,27.348 31.667 C 27.015 31.667,27.003 31.609,27.106 30.499 C 27.170 29.811,27.126 28.714,26.999 27.828 C 26.756 26.130,26.959 25.650,28.012 25.439 C 28.335 25.375,28.500 25.240,28.500 25.041 C 28.500 24.792,28.612 24.752,29.167 24.805 C 29.797 24.865,29.833 24.844,29.833 24.413 C 29.833 23.960,29.840 23.958,30.708 24.066 C 31.246 24.133,31.496 24.117,31.357 24.025 C 31.138 23.880,31.154 23.458,31.433 21.986 C 31.502 21.622,31.455 21.557,31.132 21.569 C 30.783 21.582,30.753 21.518,30.785 20.833 C 30.840 19.646,30.692 19.000,30.367 19.003 C 30.206 19.004,30.155 19.058,30.250 19.128 C 30.531 19.334,30.536 19.833,30.257 19.833 C 30.114 19.833,30.000 19.691,30.000 19.512 C 30.000 19.305,29.866 19.171,29.625 19.137 C 29.289 19.089,29.254 19.000,29.290 18.292 C 29.328 17.548,29.306 17.500,28.915 17.500 C 28.614 17.500,28.500 17.590,28.500 17.827 C 28.500 18.290,27.963 18.541,27.417 18.333 C 26.774 18.089,26.667 18.123,26.667 18.570 C 26.667 18.883,26.554 18.998,26.167 19.083 C 25.892 19.144,25.667 19.300,25.667 19.430 C 25.667 19.560,25.512 19.667,25.323 19.667 C 25.135 19.667,25.023 19.597,25.076 19.512 C 25.129 19.426,25.096 19.309,25.003 19.252 C 24.910 19.194,24.833 19.264,24.833 19.407 C 24.833 19.550,24.718 19.667,24.576 19.667 C 24.435 19.667,24.331 19.760,24.346 19.875 C 24.417 20.423,24.312 20.667,24.003 20.667 C 23.779 20.667,23.640 20.814,23.571 21.125 C 23.515 21.377,23.433 21.715,23.390 21.875 C 23.330 22.095,23.411 22.167,23.718 22.167 C 24.037 22.167,24.147 22.275,24.225 22.667 C 24.299 23.035,24.419 23.167,24.681 23.167 C 25.007 23.167,25.029 23.229,24.931 23.882 C 24.827 24.571,24.839 24.597,25.261 24.590 L 25.699 24.583 25.716 27.333 C 25.733 30.255,25.510 31.000,24.617 31.000 C 24.473 31.000,24.306 31.155,24.246 31.345 C 24.177 31.564,24.045 31.656,23.888 31.595 C 23.751 31.543,21.733 31.500,19.403 31.500 C 15.623 31.500,15.167 31.471,15.167 31.232 C 15.167 31.053,15.077 30.999,14.896 31.068 C 14.455 31.237,14.159 30.875,14.342 30.393 C 14.576 29.777,14.540 29.667,14.104 29.667 C 13.798 29.667,13.686 29.554,13.608 29.167 C 13.537 28.811,13.412 28.667,13.174 28.667 C 12.876 28.667,12.850 28.589,12.938 27.950 C 13.034 27.249,13.026 27.234,12.560 27.242 C 12.111 27.250,12.086 27.214,12.137 26.638 C 12.183 26.106,12.139 26.019,11.803 25.971 C 11.523 25.932,11.402 25.791,11.364 25.458 C 11.327 25.135,11.217 25.000,10.989 25.000 C 10.412 25.000,10.586 24.286,11.250 23.928 C 12.106 23.467,12.106 22.667,11.250 22.667 C 10.786 22.667,10.667 22.601,10.667 22.347 C 10.667 21.952,10.414 21.853,9.686 21.964 L 9.121 22.051 9.237 21.275 C 9.307 20.815,9.289 20.500,9.195 20.500 C 9.108 20.500,9.047 20.628,9.060 20.785 C 9.073 20.942,8.952 21.098,8.792 21.131 C 8.541 21.183,8.496 21.048,8.475 20.179 C 8.461 19.622,8.442 19.073,8.433 18.958 C 8.424 18.844,8.623 18.726,8.875 18.697 C 9.137 18.667,9.333 18.542,9.333 18.406 C 9.333 18.274,9.502 18.158,9.708 18.147 C 10.049 18.130,10.053 18.120,9.750 18.045 C 9.112 17.885,9.055 17.333,9.677 17.333 C 9.925 17.333,10.000 17.217,10.000 16.833 C 10.000 16.311,10.539 16.094,10.726 16.542 C 10.774 16.656,10.770 16.319,10.717 15.792 C 10.622 14.842,10.625 14.833,11.062 14.833 C 11.484 14.833,11.499 14.804,11.397 14.167 C 11.295 13.527,11.309 13.500,11.741 13.500 C 12.156 13.500,12.190 13.450,12.163 12.875 C 12.118 11.892,12.142 11.833,12.583 11.833 C 12.917 11.833,13.000 11.750,13.000 11.417 C 13.000 11.083,12.917 11.000,12.583 11.000 C 12.201 11.000,12.167 10.939,12.167 10.250 C 12.167 9.552,12.136 9.500,11.731 9.500 C 11.309 9.500,11.299 9.476,11.408 8.751 C 11.504 8.112,11.482 8.017,11.258 8.103 C 11.114 8.159,10.884 8.111,10.748 7.998 C 10.469 7.767,10.410 7.167,10.667 7.167 C 10.758 7.167,10.833 7.018,10.833 6.835 C 10.833 6.594,10.735 6.515,10.470 6.544 C 10.208 6.572,10.080 6.472,10.008 6.182 C 9.954 5.961,9.772 5.760,9.604 5.736 C 9.436 5.711,9.190 5.536,9.056 5.346 C 8.825 5.014,8.177 4.878,7.944 5.111 M215.803 18.958 C 218.032 18.984,221.632 18.984,223.803 18.958 C 225.974 18.932,224.150 18.910,219.750 18.910 C 215.350 18.910,213.574 18.932,215.803 18.958 M231.965 18.957 C 232.541 18.990,233.441 18.989,233.965 18.956 C 234.488 18.923,234.017 18.897,232.917 18.897 C 231.817 18.897,231.388 18.924,231.965 18.957 M209.800 20.125 C 209.866 20.465,209.808 20.500,209.181 20.500 C 208.620 20.500,208.464 20.569,208.353 20.868 C 208.235 21.187,208.112 21.230,207.442 21.189 C 206.753 21.147,206.667 21.180,206.667 21.487 C 206.667 21.730,206.560 21.833,206.311 21.833 C 205.985 21.833,205.963 21.897,206.057 22.579 C 206.189 23.542,206.067 23.857,205.608 23.741 L 205.250 23.652 205.250 28.576 L 205.250 33.500 205.629 33.500 C 205.880 33.500,206.062 33.641,206.167 33.917 C 206.254 34.146,206.439 34.333,206.579 34.333 C 206.719 34.333,206.833 34.442,206.833 34.574 C 206.833 34.707,207.040 34.916,207.292 35.040 C 207.603 35.193,207.738 35.378,207.713 35.616 C 207.679 35.944,207.750 35.966,208.797 35.942 C 209.855 35.918,209.920 35.938,209.972 36.309 C 210.025 36.679,210.077 36.696,210.889 36.599 C 211.876 36.482,212.254 36.648,212.125 37.140 C 212.041 37.462,212.102 37.479,213.226 37.449 C 214.359 37.418,214.419 37.436,214.472 37.807 C 214.523 38.165,214.591 38.191,215.290 38.121 C 216.380 38.012,216.712 38.130,216.624 38.595 C 216.552 38.970,216.571 38.975,217.692 38.881 C 218.829 38.785,218.833 38.787,218.833 39.210 C 218.833 39.626,218.857 39.634,219.958 39.609 C 221.012 39.585,221.087 39.607,221.137 39.964 C 221.184 40.292,221.276 40.338,221.804 40.297 L 222.417 40.250 222.417 42.250 L 222.417 44.250 221.958 44.303 C 221.635 44.340,221.500 44.450,221.500 44.678 C 221.500 44.991,221.301 45.001,214.458 45.020 C 210.585 45.031,207.379 45.040,207.333 45.041 C 207.287 45.042,206.819 44.995,206.292 44.936 L 205.333 44.830 205.333 47.561 C 205.333 49.560,205.390 50.339,205.544 50.467 C 205.684 50.584,209.019 50.660,215.502 50.696 C 220.864 50.726,225.044 50.726,224.792 50.697 C 223.992 50.605,224.173 50.000,225.000 50.000 C 225.558 50.000,225.667 49.945,225.667 49.663 C 225.667 49.456,225.828 49.264,226.083 49.167 C 226.313 49.080,226.500 48.892,226.500 48.750 C 226.500 48.608,226.677 48.424,226.894 48.342 C 227.111 48.260,227.328 48.036,227.378 47.846 C 227.435 47.629,227.604 47.500,227.832 47.500 C 228.159 47.500,228.186 47.437,228.096 46.875 C 227.976 46.125,228.176 45.753,228.634 45.873 C 228.997 45.968,229.224 44.844,228.971 44.206 C 228.806 43.789,228.807 38.536,228.972 38.434 C 229.323 38.217,228.977 37.384,228.568 37.462 C 228.195 37.533,228.167 37.489,228.167 36.832 C 228.167 36.218,228.200 36.153,228.421 36.337 C 228.560 36.453,228.723 36.499,228.782 36.440 C 228.976 36.246,228.697 36.132,227.969 36.108 C 227.359 36.087,227.242 36.026,227.197 35.708 C 227.153 35.403,227.038 35.333,226.572 35.333 C 225.901 35.333,225.776 34.914,226.375 34.669 C 226.635 34.563,226.345 34.534,225.432 34.576 C 223.912 34.645,223.667 34.585,223.667 34.144 C 223.667 33.729,223.338 33.610,222.779 33.822 C 222.033 34.106,221.288 33.868,221.382 33.376 C 221.459 32.974,221.444 32.968,220.605 33.068 C 219.530 33.195,219.153 33.000,219.474 32.482 C 219.696 32.124,219.689 32.121,218.891 32.240 C 217.332 32.472,216.724 32.312,216.948 31.727 C 217.014 31.557,216.778 31.516,215.891 31.546 C 214.828 31.581,214.746 31.558,214.698 31.216 C 214.651 30.884,214.535 30.843,213.531 30.799 C 212.791 30.766,212.410 30.680,212.396 30.542 C 212.384 30.427,212.366 30.258,212.354 30.167 C 212.343 30.075,212.221 30.000,212.083 30.000 C 211.879 30.000,211.833 29.717,211.831 28.458 C 211.830 27.610,211.780 26.736,211.721 26.516 C 211.621 26.139,211.649 26.120,212.182 26.202 C 212.914 26.314,213.167 26.216,213.167 25.819 C 213.167 25.371,213.632 25.419,213.697 25.875 L 213.750 26.250 219.936 26.294 L 226.121 26.337 226.041 25.919 C 225.962 25.506,225.976 25.500,227.064 25.500 L 228.167 25.500 228.167 24.161 C 228.167 22.878,228.181 22.829,228.496 22.998 C 228.763 23.141,228.808 23.127,228.730 22.926 C 228.678 22.789,228.548 22.694,228.443 22.714 C 228.311 22.738,228.240 22.305,228.217 21.356 C 228.199 20.589,228.160 19.938,228.130 19.908 C 228.101 19.878,223.948 19.831,218.903 19.802 L 209.729 19.750 209.800 20.125 M233.333 19.785 C 232.188 19.811,231.100 19.866,230.917 19.909 C 230.586 19.985,230.583 20.122,230.585 35.284 L 230.586 50.583 233.085 50.675 C 234.989 50.744,235.672 50.714,235.958 50.546 L 236.333 50.326 236.333 43.079 C 236.333 36.906,236.369 35.833,236.572 35.833 C 236.703 35.833,236.834 35.665,236.863 35.458 C 236.944 34.890,242.170 34.799,242.833 35.355 L 243.250 35.704 243.250 42.560 C 243.250 46.331,243.186 49.694,243.108 50.033 L 242.966 50.650 244.025 50.700 C 245.001 50.746,245.082 50.779,245.070 51.125 C 245.062 51.347,245.155 51.500,245.298 51.500 C 245.457 51.500,245.509 51.387,245.452 51.166 C 245.345 50.760,245.544 50.705,247.500 50.592 C 248.279 50.548,249.085 50.490,249.292 50.464 L 249.667 50.417 249.667 42.474 C 249.667 34.793,249.656 34.534,249.354 34.613 C 248.975 34.712,248.643 33.932,248.846 33.417 C 249.100 32.769,249.023 32.500,248.583 32.500 C 248.194 32.500,248.167 32.444,248.167 31.667 C 248.167 30.944,248.122 30.833,247.833 30.833 C 247.478 30.833,247.355 30.337,247.708 30.328 C 247.823 30.325,247.783 30.246,247.621 30.151 C 247.458 30.056,247.008 30.002,246.621 30.031 C 246.008 30.077,245.910 30.037,245.866 29.725 C 245.809 29.325,245.411 29.160,244.919 29.332 C 244.281 29.556,237.096 29.312,236.950 29.062 C 236.877 28.936,236.708 28.833,236.575 28.833 C 236.295 28.833,236.313 29.203,236.333 23.792 L 236.349 19.667 235.883 19.703 C 235.626 19.723,234.479 19.760,233.333 19.785 M288.500 34.903 C 288.500 43.283,288.546 50.258,288.601 50.403 C 288.687 50.628,289.082 50.667,291.271 50.667 L 293.840 50.667 294.030 50.250 C 294.155 49.975,294.355 49.833,294.617 49.833 L 295.014 49.833 294.965 46.583 L 294.917 43.333 295.958 43.308 C 296.531 43.295,297.094 43.276,297.208 43.267 C 297.323 43.258,297.441 43.419,297.470 43.625 C 297.499 43.831,297.630 44.000,297.762 44.000 C 297.933 44.000,298.000 44.211,298.000 44.750 C 298.000 45.389,298.049 45.500,298.333 45.500 C 298.613 45.500,298.667 45.611,298.667 46.192 L 298.667 46.885 298.309 46.567 C 297.953 46.251,297.952 46.252,298.151 46.630 C 298.261 46.839,298.441 46.999,298.550 46.986 C 299.374 46.882,299.500 46.984,299.500 47.750 C 299.500 48.383,299.551 48.500,299.826 48.500 C 300.067 48.500,300.180 48.654,300.263 49.095 C 300.341 49.510,300.495 49.736,300.771 49.841 C 300.989 49.924,301.167 50.098,301.167 50.228 C 301.167 50.672,306.959 50.939,307.385 50.514 C 307.828 50.073,307.708 48.667,307.227 48.667 L 306.750 48.667 306.805 47.500 C 306.857 46.411,306.837 46.333,306.514 46.333 C 306.291 46.333,306.167 46.226,306.167 46.035 C 306.167 45.819,306.040 45.739,305.708 45.743 C 305.272 45.750,305.253 45.717,305.305 45.055 C 305.353 44.435,305.317 44.354,304.971 44.305 C 304.616 44.255,304.588 44.182,304.642 43.436 C 304.700 42.633,304.695 42.623,304.267 42.731 C 303.839 42.838,303.833 42.827,303.833 41.920 C 303.833 41.207,303.890 41.000,304.087 41.000 C 304.227 41.000,304.413 40.813,304.500 40.583 C 304.601 40.317,304.788 40.167,305.017 40.167 C 305.338 40.167,305.365 40.101,305.276 39.542 C 305.120 38.569,305.283 38.156,305.751 38.334 L 306.135 38.480 306.109 33.840 C 306.095 31.288,306.041 29.226,305.989 29.258 C 305.937 29.289,304.453 29.335,302.690 29.360 L 299.484 29.405 299.507 33.161 L 299.531 36.917 299.140 36.856 C 298.926 36.822,297.906 36.762,296.875 36.721 L 295.000 36.646 295.000 28.333 C 295.000 23.541,294.936 19.980,294.849 19.926 C 294.766 19.875,294.737 19.983,294.785 20.166 C 294.852 20.422,294.790 20.500,294.519 20.500 C 294.254 20.500,294.167 20.397,294.167 20.083 L 294.167 19.667 291.333 19.667 L 288.500 19.667 288.500 34.903 M237.071 24.667 C 237.071 26.637,237.095 27.444,237.124 26.458 C 237.154 25.473,237.154 23.860,237.124 22.875 C 237.095 21.890,237.071 22.696,237.071 24.667 M19.833 21.673 C 19.833 21.995,19.771 22.019,19.179 21.919 C 18.554 21.813,18.522 21.829,18.471 22.279 C 18.420 22.718,18.371 22.747,17.737 22.709 C 17.127 22.671,17.058 22.706,17.070 23.042 C 17.085 23.468,15.938 23.669,13.181 23.723 L 11.778 23.750 11.736 24.286 L 11.693 24.822 13.472 24.869 C 14.450 24.895,15.405 24.855,15.594 24.779 C 16.188 24.541,17.006 25.399,16.816 26.062 C 16.607 26.789,16.613 26.805,17.125 26.864 C 17.446 26.901,17.599 27.024,17.634 27.275 C 17.662 27.472,17.833 27.671,18.014 27.719 C 18.297 27.793,18.327 27.898,18.233 28.486 L 18.124 29.167 18.979 29.167 C 19.449 29.167,19.890 29.171,19.958 29.177 C 20.027 29.182,20.126 29.013,20.178 28.802 C 20.260 28.470,20.365 28.422,20.941 28.458 C 21.534 28.495,21.608 28.458,21.597 28.135 C 21.586 27.853,21.707 27.743,22.125 27.656 C 22.423 27.593,22.667 27.608,22.667 27.688 C 22.667 27.768,22.798 27.831,22.958 27.828 C 23.236 27.823,23.236 27.815,22.958 27.653 C 22.417 27.338,22.612 27.000,23.333 27.000 L 24.000 27.000 24.000 26.264 C 24.000 25.312,23.872 25.000,23.480 25.000 C 23.204 25.000,23.176 24.915,23.267 24.347 C 23.362 23.753,23.337 23.690,22.977 23.639 C 22.628 23.590,22.587 23.504,22.615 22.875 C 22.644 22.232,22.610 22.167,22.251 22.167 C 21.969 22.167,21.841 22.060,21.803 21.792 C 21.723 21.230,19.833 21.116,19.833 21.673 M286.667 28.667 C 287.237 28.849,287.675 28.849,287.250 28.667 C 287.067 28.588,286.767 28.526,286.583 28.528 C 286.315 28.532,286.332 28.559,286.667 28.667 M300.169 28.792 C 300.171 28.972,300.219 29.013,300.294 28.900 C 300.362 28.799,300.529 28.674,300.667 28.621 C 300.834 28.558,300.792 28.522,300.542 28.513 C 300.290 28.504,300.168 28.596,300.169 28.792 M252.667 31.757 L 252.667 34.263 253.125 34.257 C 253.548 34.251,253.582 34.298,253.564 34.875 C 253.554 35.219,253.615 35.500,253.699 35.500 C 253.784 35.500,253.812 35.433,253.761 35.351 C 253.538 34.990,262.308 34.630,262.951 34.974 C 263.322 35.172,263.312 35.672,262.931 35.988 C 262.758 36.132,258.091 36.209,255.417 36.113 C 254.669 36.086,254.578 36.122,254.530 36.458 C 254.497 36.692,254.325 36.871,254.072 36.934 C 253.849 36.990,253.667 37.142,253.667 37.272 C 253.667 37.402,253.479 37.580,253.250 37.667 C 253.021 37.754,252.833 37.931,252.833 38.060 C 252.833 38.189,252.683 38.334,252.500 38.382 C 252.301 38.434,252.167 38.609,252.167 38.818 C 252.167 39.097,252.063 39.167,251.646 39.167 C 251.164 39.167,251.132 39.202,251.219 39.635 C 251.270 39.893,251.326 40.174,251.343 40.260 C 251.458 40.856,251.312 41.167,250.917 41.167 L 250.500 41.167 250.500 43.394 L 250.500 45.620 250.917 45.541 C 251.320 45.464,251.481 45.855,251.343 46.573 C 251.326 46.659,251.273 46.925,251.226 47.164 C 251.148 47.552,251.189 47.598,251.611 47.591 C 251.971 47.585,252.096 47.669,252.135 47.943 C 252.166 48.161,252.345 48.342,252.593 48.404 C 252.817 48.460,253.000 48.615,253.000 48.747 C 253.000 48.880,253.150 49.069,253.333 49.167 C 253.517 49.265,253.667 49.447,253.667 49.571 C 253.667 49.698,253.929 49.845,254.267 49.909 C 254.771 50.003,254.857 50.080,254.799 50.386 L 254.729 50.750 261.865 50.750 L 269.000 50.750 269.000 50.042 C 269.000 49.444,269.052 49.333,269.333 49.333 C 269.712 49.333,269.712 49.692,269.333 49.863 C 269.153 49.945,269.188 49.980,269.458 49.988 L 269.833 50.000 269.814 41.875 C 269.803 37.406,269.760 33.881,269.718 34.042 C 269.479 34.960,268.784 34.097,268.949 33.085 C 269.028 32.595,268.992 32.522,268.645 32.472 C 268.284 32.422,268.254 32.348,268.300 31.625 C 268.347 30.874,268.328 30.833,267.925 30.833 C 267.577 30.833,267.500 30.754,267.500 30.395 C 267.500 29.943,267.353 29.921,266.167 30.193 C 265.999 30.231,265.899 30.097,265.863 29.785 C 265.810 29.324,265.801 29.320,264.863 29.411 C 264.343 29.462,261.385 29.446,258.292 29.377 L 252.666 29.250 252.667 31.757 M275.000 29.750 C 275.000 30.049,274.915 30.084,274.333 30.029 C 273.705 29.969,273.667 29.991,273.667 30.415 C 273.667 30.722,273.563 30.892,273.339 30.950 C 273.159 30.997,272.966 31.178,272.911 31.351 C 272.849 31.547,272.657 31.667,272.405 31.667 C 272.162 31.667,272.000 31.763,272.000 31.908 C 272.000 32.041,271.869 32.227,271.708 32.320 C 271.431 32.482,271.431 32.490,271.708 32.495 C 271.869 32.498,272.000 32.612,272.000 32.750 C 272.000 33.085,271.669 33.067,271.414 32.718 C 271.241 32.481,271.217 32.555,271.271 33.176 C 271.333 33.906,271.343 45.691,271.282 46.500 C 271.258 46.817,271.340 46.929,271.625 46.970 C 271.941 47.015,272.000 47.126,272.000 47.678 C 272.000 48.268,272.042 48.333,272.421 48.333 C 272.716 48.333,272.889 48.457,273.000 48.750 C 273.087 48.979,273.273 49.167,273.413 49.167 C 273.572 49.167,273.667 49.321,273.667 49.583 C 273.667 49.968,273.726 50.000,274.436 50.000 C 275.144 50.000,275.200 50.030,275.134 50.375 C 275.062 50.749,275.068 50.750,277.156 50.720 C 278.308 50.704,280.919 50.685,282.958 50.679 L 286.667 50.667 286.667 48.250 C 286.667 45.952,286.650 45.833,286.337 45.833 C 286.123 45.833,285.969 45.686,285.902 45.417 L 285.797 45.000 281.732 45.000 C 278.192 45.000,277.667 44.967,277.667 44.745 C 277.667 44.604,277.554 44.446,277.417 44.394 C 276.951 44.215,277.055 36.137,277.531 35.493 L 277.896 35.000 281.948 35.000 C 285.351 35.000,286.000 34.962,286.000 34.762 C 286.000 34.630,286.169 34.499,286.375 34.470 C 286.694 34.425,286.909 29.885,286.608 29.555 C 286.347 29.269,275.000 29.460,275.000 29.750 M298.730 33.417 C 298.731 34.517,298.758 34.945,298.790 34.368 C 298.823 33.792,298.823 32.892,298.790 32.368 C 298.757 31.845,298.730 32.317,298.730 33.417 M270.573 40.000 C 270.573 42.521,270.596 43.552,270.625 42.292 C 270.653 41.031,270.653 38.969,270.625 37.708 C 270.596 36.448,270.573 37.479,270.573 40.000 M236.976 36.208 C 236.943 36.323,236.957 39.567,237.006 43.417 L 237.095 50.417 237.131 43.208 C 237.164 36.564,237.143 35.624,236.976 36.208 M277.899 40.417 C 277.899 41.700,277.926 42.203,277.957 41.534 C 277.989 40.866,277.989 39.816,277.957 39.201 C 277.925 38.586,277.899 39.133,277.899 40.417 M10.026 38.591 C 10.057 38.755,10.179 38.908,10.296 38.932 C 10.413 38.956,10.431 38.937,10.336 38.890 C 10.242 38.843,10.204 38.741,10.252 38.664 C 10.300 38.586,10.255 38.471,10.153 38.408 C 10.038 38.337,9.990 38.406,10.026 38.591 M262.909 41.604 C 263.588 41.864,263.798 44.268,263.194 44.873 C 262.753 45.315,258.141 45.262,257.439 44.807 C 256.577 44.248,256.524 42.623,257.346 41.931 C 257.857 41.501,262.005 41.257,262.909 41.604 M304.367 41.809 C 304.194 41.919,304.200 41.987,304.399 42.152 C 304.607 42.324,304.644 42.301,304.622 42.013 C 304.607 41.822,304.593 41.668,304.590 41.669 C 304.586 41.671,304.486 41.733,304.367 41.809 M40.031 43.436 C 40.186 43.483,40.348 43.685,40.392 43.885 C 40.458 44.191,40.467 44.183,40.444 43.835 C 40.425 43.553,40.310 43.409,40.083 43.386 C 39.843 43.362,39.829 43.376,40.031 43.436 M26.167 49.010 C 26.167 49.107,26.097 49.143,26.012 49.090 C 25.926 49.038,25.819 49.055,25.773 49.129 C 25.727 49.203,25.835 49.275,26.012 49.288 C 26.192 49.302,26.333 49.207,26.333 49.073 C 26.333 48.941,26.296 48.833,26.250 48.833 C 26.204 48.833,26.167 48.913,26.167 49.010 M19.833 50.667 C 19.631 50.797,19.655 50.829,19.958 50.831 C 20.165 50.832,20.333 50.758,20.333 50.667 C 20.333 50.458,20.156 50.458,19.833 50.667 M37.302 63.623 C 37.218 64.058,36.667 64.106,36.667 63.679 C 36.667 63.440,36.774 63.333,37.012 63.333 C 37.251 63.333,37.340 63.423,37.302 63.623 " stroke="none" fill="#2ea0d5" fill-rule="evenodd"></path><path id="path1" d="M15.093 0.727 C 15.197 1.144,14.878 1.326,14.038 1.331 C 13.519 1.334,13.143 2.115,13.526 2.396 C 13.671 2.501,13.845 2.840,13.912 3.148 C 13.988 3.490,14.158 3.739,14.351 3.790 C 14.525 3.835,14.667 4.011,14.667 4.180 C 14.667 4.350,14.822 4.571,15.011 4.673 C 15.456 4.911,16.333 6.293,16.333 6.757 C 16.333 6.954,16.483 7.251,16.667 7.417 C 17.043 7.757,17.097 8.346,16.800 8.886 C 16.690 9.086,16.620 9.411,16.643 9.609 C 16.669 9.828,16.538 10.071,16.306 10.234 C 16.097 10.380,16.003 10.500,16.096 10.500 C 16.190 10.500,16.362 10.406,16.478 10.292 C 16.647 10.125,16.732 10.141,16.905 10.375 C 17.251 10.844,17.425 10.720,17.666 9.835 C 17.807 9.317,18.005 8.968,18.192 8.909 C 18.356 8.857,18.737 8.529,19.037 8.181 C 19.750 7.355,19.902 7.337,24.858 7.472 C 29.336 7.593,29.667 7.672,29.667 8.614 C 29.667 8.832,29.780 9.054,29.918 9.107 C 30.056 9.160,30.215 9.493,30.271 9.847 C 30.339 10.271,30.481 10.524,30.686 10.590 C 30.918 10.663,30.988 10.825,30.957 11.219 C 30.923 11.663,30.981 11.759,31.305 11.805 C 31.556 11.840,31.752 12.028,31.858 12.333 C 31.949 12.594,32.120 12.844,32.238 12.889 C 32.356 12.934,32.501 13.270,32.559 13.634 C 32.619 14.012,32.779 14.341,32.931 14.399 C 33.143 14.480,33.190 14.729,33.163 15.626 C 33.107 17.507,33.095 17.469,33.917 17.869 C 34.329 18.069,34.667 18.331,34.667 18.450 C 34.667 18.569,34.808 18.667,34.980 18.667 C 35.564 18.667,35.652 21.013,35.099 21.811 C 34.861 22.154,34.667 22.524,34.667 22.634 C 34.667 22.744,34.603 22.833,34.525 22.833 C 33.661 22.833,33.160 25.768,33.835 26.874 C 34.188 27.454,34.273 28.248,34.000 28.417 C 33.743 28.575,33.803 28.835,34.072 28.731 C 34.361 28.620,35.738 29.999,36.333 30.995 C 36.698 31.605,36.771 31.656,36.917 31.398 C 37.008 31.236,37.246 30.932,37.445 30.723 C 37.645 30.515,37.854 30.196,37.912 30.016 C 37.969 29.835,38.181 29.664,38.383 29.636 C 38.667 29.595,38.762 29.453,38.805 29.006 C 38.836 28.675,38.996 28.334,39.180 28.205 C 39.371 28.072,39.500 27.786,39.500 27.496 C 39.500 27.192,39.617 26.949,39.814 26.844 C 39.987 26.751,40.176 26.418,40.235 26.104 C 40.294 25.789,40.453 25.490,40.588 25.438 C 40.723 25.386,40.833 25.163,40.833 24.942 C 40.833 24.432,41.228 24.100,41.690 24.221 C 41.959 24.291,42.000 24.267,41.857 24.124 C 41.506 23.773,41.639 23.198,42.125 22.965 C 42.504 22.783,42.574 22.654,42.530 22.218 C 42.491 21.822,42.563 21.645,42.822 21.506 C 43.051 21.383,43.167 21.156,43.167 20.827 C 43.167 20.549,43.318 20.182,43.513 19.987 C 43.845 19.655,43.849 19.167,43.520 19.167 C 43.433 19.167,43.310 18.858,43.247 18.480 C 43.164 17.991,43.034 17.768,42.798 17.706 C 42.513 17.631,42.480 17.525,42.568 16.976 C 42.664 16.375,42.644 16.333,42.255 16.333 C 41.764 16.333,41.500 15.652,41.835 15.248 C 42.008 15.039,41.972 15.000,41.610 15.000 C 41.332 15.000,41.107 14.866,40.979 14.625 C 40.870 14.419,40.642 14.152,40.474 14.032 C 40.305 13.912,40.167 13.640,40.167 13.426 C 40.167 13.196,39.997 12.927,39.750 12.765 C 39.460 12.575,39.333 12.341,39.333 11.996 C 39.333 11.679,39.248 11.500,39.097 11.500 C 38.966 11.500,38.810 11.271,38.748 10.992 C 38.687 10.713,38.493 10.395,38.318 10.285 C 38.143 10.176,38.000 9.954,38.000 9.792 C 38.000 9.630,37.813 9.335,37.583 9.136 C 37.354 8.936,37.167 8.675,37.167 8.555 C 37.167 8.434,37.015 8.242,36.829 8.126 C 36.632 8.004,36.450 7.661,36.393 7.302 C 36.338 6.964,36.200 6.651,36.085 6.607 C 35.970 6.563,35.825 6.259,35.764 5.932 C 35.701 5.596,35.510 5.261,35.326 5.163 C 34.982 4.979,34.885 4.424,35.167 4.250 C 35.491 4.049,35.327 3.833,34.850 3.833 C 34.462 3.833,34.331 3.734,34.192 3.333 C 34.096 3.058,33.946 2.833,33.858 2.833 C 33.771 2.833,33.623 2.614,33.530 2.347 C 33.436 2.079,33.204 1.704,33.013 1.513 C 32.823 1.323,32.667 1.028,32.667 0.857 C 32.667 0.396,31.516 0.336,22.705 0.335 L 14.994 0.333 15.093 0.727 M25.250 10.667 C 25.193 10.758,24.819 10.833,24.418 10.833 C 23.790 10.833,23.683 10.885,23.637 11.208 C 23.593 11.516,23.486 11.579,23.042 11.559 C 22.575 11.538,22.500 11.589,22.500 11.931 C 22.500 12.225,22.383 12.355,22.042 12.436 C 21.237 12.629,20.763 13.731,21.333 14.083 C 21.425 14.140,21.500 14.314,21.500 14.470 C 21.500 14.626,21.646 14.844,21.824 14.955 C 22.075 15.112,22.127 15.281,22.057 15.711 C 21.979 16.193,22.026 16.292,22.419 16.471 C 22.763 16.628,22.853 16.768,22.797 17.060 C 22.731 17.408,22.816 17.464,23.699 17.660 C 24.235 17.779,24.714 17.942,24.763 18.022 C 24.941 18.309,25.167 18.158,25.167 17.753 C 25.167 17.284,25.882 16.982,26.212 17.312 C 26.315 17.415,26.516 17.494,26.658 17.487 C 26.830 17.478,26.847 17.445,26.708 17.390 C 26.359 17.249,26.472 16.697,26.875 16.577 C 27.081 16.515,27.375 16.306,27.528 16.113 C 27.681 15.919,28.051 15.678,28.351 15.577 C 28.999 15.359,29.146 15.077,28.675 14.954 C 28.490 14.905,28.259 14.690,28.162 14.474 C 27.892 13.870,27.281 12.918,26.958 12.598 C 26.798 12.440,26.667 12.142,26.667 11.937 C 26.667 11.346,25.485 10.286,25.250 10.667 M16.505 13.823 C 16.404 14.012,16.223 14.167,16.103 14.167 C 15.983 14.167,15.749 14.317,15.583 14.500 C 15.417 14.683,15.175 14.833,15.044 14.833 C 14.914 14.833,14.494 15.140,14.112 15.515 C 13.730 15.890,13.309 16.257,13.177 16.331 C 12.977 16.443,12.970 16.577,13.135 17.127 C 13.244 17.491,13.333 17.941,13.333 18.127 C 13.333 18.312,13.446 18.508,13.583 18.560 C 13.721 18.613,13.833 18.843,13.833 19.072 C 13.833 19.300,13.951 19.584,14.094 19.702 C 14.237 19.820,14.550 20.124,14.790 20.377 C 15.246 20.860,15.645 20.865,16.180 20.397 C 16.325 20.270,16.672 20.167,16.952 20.167 C 17.312 20.167,17.542 20.044,17.735 19.750 C 17.906 19.489,18.164 19.333,18.426 19.333 C 18.656 19.333,18.888 19.218,18.942 19.077 C 18.996 18.936,19.256 18.709,19.520 18.573 C 20.038 18.305,20.191 17.609,19.767 17.446 C 19.639 17.397,19.445 17.089,19.337 16.762 C 19.229 16.434,19.072 16.167,18.987 16.167 C 18.903 16.167,18.833 16.060,18.833 15.929 C 18.833 15.799,18.627 15.448,18.375 15.149 C 18.123 14.850,17.842 14.375,17.750 14.094 C 17.539 13.448,16.793 13.286,16.505 13.823 M103.044 18.953 C 103.297 18.991,103.672 18.990,103.877 18.951 C 104.082 18.911,103.875 18.880,103.417 18.881 C 102.958 18.882,102.791 18.915,103.044 18.953 M107.127 18.951 C 107.334 18.991,107.634 18.990,107.794 18.948 C 107.953 18.906,107.783 18.874,107.417 18.875 C 107.050 18.877,106.920 18.911,107.127 18.951 M110.635 19.704 C 110.617 19.729,110.561 25.712,110.510 33.000 C 110.458 40.288,110.372 46.362,110.319 46.500 C 110.265 46.637,110.253 46.694,110.291 46.625 C 110.469 46.307,111.027 46.527,111.184 46.977 C 111.275 47.239,111.534 47.538,111.758 47.640 C 111.983 47.742,112.167 47.895,112.167 47.979 C 112.167 48.298,113.628 49.667,113.968 49.667 C 114.162 49.667,114.456 49.812,114.621 49.989 C 114.908 50.297,120.826 50.813,121.540 50.593 C 121.655 50.557,121.947 50.485,122.187 50.433 C 122.622 50.338,122.625 50.325,122.705 48.460 C 122.750 47.428,122.815 46.472,122.851 46.335 C 122.899 46.154,122.799 46.100,122.478 46.136 C 122.116 46.177,122.007 46.093,121.854 45.654 L 121.669 45.123 120.209 45.228 C 118.298 45.364,116.730 45.068,116.792 44.582 C 116.838 44.221,116.827 36.181,116.779 35.500 L 116.750 35.083 118.864 35.083 L 120.979 35.083 121.082 34.500 C 121.268 33.444,121.346 33.298,121.683 33.386 C 121.977 33.463,122.000 33.362,122.000 31.975 C 122.000 30.997,121.941 30.517,121.829 30.586 C 121.735 30.644,121.456 30.461,121.209 30.179 C 120.777 29.687,120.706 29.667,119.421 29.666 C 118.685 29.665,117.802 29.587,117.458 29.491 L 116.833 29.318 116.833 25.075 C 116.833 21.101,116.814 20.833,116.533 20.833 C 115.965 20.833,115.350 20.433,115.384 20.084 C 115.413 19.791,110.828 19.424,110.635 19.704 M57.921 19.950 C 56.389 20.002,56.036 20.065,55.745 20.338 C 55.554 20.517,55.046 20.712,54.616 20.771 C 54.185 20.830,53.833 20.938,53.833 21.011 C 53.833 21.084,53.702 21.187,53.542 21.239 C 53.381 21.290,53.063 21.614,52.835 21.958 C 52.607 22.302,52.325 22.643,52.210 22.717 C 52.094 22.790,52.000 22.962,52.000 23.100 C 52.000 23.237,51.806 23.529,51.569 23.748 C 50.447 24.789,50.998 33.611,52.219 34.142 C 52.294 34.175,52.421 34.376,52.502 34.588 C 52.585 34.806,52.816 34.998,53.033 35.029 C 53.329 35.071,53.415 35.188,53.410 35.542 C 53.404 35.990,53.711 36.167,53.917 35.833 C 54.202 35.371,55.753 35.696,55.856 36.241 C 55.910 36.523,56.040 36.559,56.876 36.520 C 57.894 36.473,58.576 37.061,57.854 37.363 C 57.644 37.451,57.667 37.479,57.958 37.488 C 58.165 37.495,58.333 37.434,58.333 37.353 C 58.333 36.874,60.200 37.220,60.301 37.717 C 60.339 37.904,60.508 37.945,60.985 37.881 C 61.797 37.772,62.333 38.054,62.333 38.589 C 62.333 39.003,62.714 39.162,62.917 38.833 C 63.172 38.420,64.500 38.706,64.500 39.175 C 64.500 39.595,64.736 39.704,65.196 39.495 C 65.821 39.212,66.926 39.517,66.879 39.960 C 66.845 40.273,66.919 40.309,67.545 40.281 L 68.250 40.250 68.303 41.417 C 68.415 43.885,68.086 44.842,67.297 44.349 C 67.006 44.168,66.983 44.183,67.080 44.490 C 67.246 45.011,67.262 45.010,59.655 45.048 C 50.746 45.092,51.202 44.919,51.040 48.334 C 50.918 50.891,50.131 50.668,59.245 50.660 C 66.672 50.653,69.130 50.511,69.683 50.059 C 69.812 49.954,70.179 49.749,70.500 49.604 C 71.616 49.099,72.490 48.299,72.846 47.458 C 72.953 47.206,73.144 47.000,73.270 47.000 C 73.483 47.000,73.574 46.623,73.513 45.985 C 73.466 45.490,73.819 44.833,74.132 44.833 C 74.419 44.833,74.438 44.638,74.428 41.750 C 74.418 38.953,74.390 38.667,74.131 38.667 C 73.619 38.667,73.304 37.669,73.566 36.875 C 73.667 36.568,73.627 36.500,73.349 36.500 C 73.139 36.500,72.909 36.308,72.750 36.000 C 72.581 35.674,72.363 35.499,72.121 35.498 C 71.300 35.493,70.966 35.305,71.045 34.893 C 71.087 34.677,71.056 34.500,70.977 34.500 C 70.898 34.500,70.833 34.575,70.833 34.667 C 70.833 34.886,69.568 34.882,69.156 34.661 C 68.808 34.475,68.709 33.833,69.028 33.833 C 69.135 33.833,69.172 33.783,69.111 33.722 C 69.050 33.661,68.818 33.708,68.596 33.826 C 67.998 34.147,67.036 33.926,66.969 33.453 C 66.913 33.060,66.889 33.057,65.478 33.261 C 64.844 33.352,64.649 33.315,64.387 33.054 C 64.212 32.879,63.697 32.664,63.243 32.576 C 62.508 32.434,62.411 32.365,62.363 31.951 C 62.318 31.556,62.254 31.503,61.947 31.601 C 61.081 31.877,60.167 31.669,60.167 31.195 C 60.167 30.955,59.996 30.911,59.087 30.913 C 57.575 30.918,57.468 30.738,57.439 28.152 C 57.418 26.326,57.441 26.167,57.724 26.167 C 57.893 26.167,58.068 26.025,58.113 25.852 C 58.241 25.364,59.030 25.316,65.141 25.420 C 71.312 25.525,72.696 25.404,72.799 24.750 C 72.912 24.036,73.211 23.470,73.356 23.697 C 73.466 23.872,73.498 23.865,73.509 23.667 C 73.519 23.497,73.571 23.524,73.670 23.750 C 73.762 23.960,73.804 23.351,73.783 22.099 L 73.750 20.115 73.167 20.056 C 72.263 19.965,59.975 19.879,57.921 19.950 M102.177 19.960 C 101.176 20.005,100.893 20.079,100.709 20.341 C 100.584 20.520,100.343 20.667,100.175 20.667 C 99.808 20.667,97.917 22.474,97.757 22.978 C 97.665 23.267,97.560 23.313,97.197 23.223 C 96.792 23.122,96.772 23.138,96.982 23.394 C 97.178 23.631,97.184 24.095,97.024 26.296 C 96.918 27.737,96.833 29.577,96.833 30.385 C 96.833 31.277,96.771 31.814,96.674 31.754 C 96.586 31.700,96.560 31.527,96.615 31.370 C 96.699 31.131,96.677 31.119,96.483 31.300 C 96.291 31.478,96.242 32.920,96.204 39.480 L 96.157 47.444 96.537 47.430 C 97.095 47.410,97.097 48.391,96.539 48.470 C 96.332 48.500,96.203 48.590,96.253 48.671 C 96.303 48.752,96.451 48.778,96.582 48.728 C 96.846 48.626,97.100 49.333,96.945 49.737 C 96.579 50.691,100.904 50.997,101.956 50.092 L 102.387 49.721 102.419 42.902 C 102.460 34.278,102.227 35.006,104.948 35.003 C 107.186 34.999,107.038 35.170,107.127 32.512 C 107.220 29.737,107.254 29.781,104.922 29.653 C 102.758 29.534,102.627 29.440,102.531 27.923 C 102.382 25.582,102.667 25.333,105.500 25.333 C 108.041 25.333,108.240 25.225,108.426 23.734 C 108.584 22.469,108.452 20.385,108.197 20.130 C 107.982 19.915,105.019 19.831,102.177 19.960 M81.228 28.628 C 81.124 28.695,81.010 28.900,80.975 29.083 C 80.924 29.347,80.773 29.419,80.252 29.428 C 79.695 29.437,79.579 29.501,79.498 29.844 C 79.400 30.264,78.333 30.569,78.333 30.177 C 78.333 30.080,78.206 30.000,78.050 30.000 C 77.836 30.000,77.814 30.047,77.958 30.192 C 78.188 30.421,77.800 31.496,77.409 31.714 C 77.276 31.789,77.167 31.992,77.167 32.165 C 77.167 32.339,77.004 32.595,76.804 32.735 C 76.359 33.047,76.196 34.033,76.179 36.522 C 76.168 38.087,76.131 38.304,75.865 38.373 C 75.613 38.439,75.556 38.338,75.522 37.773 C 75.363 35.071,75.232 39.593,75.323 44.625 C 75.332 45.086,75.394 45.167,75.742 45.167 C 76.220 45.167,76.447 45.925,76.263 46.904 C 76.168 47.410,76.200 47.482,76.536 47.529 C 76.870 47.577,76.913 47.670,76.885 48.292 C 76.857 48.923,76.886 48.984,77.148 48.843 C 77.361 48.729,77.516 48.764,77.709 48.968 C 78.223 49.510,78.484 49.662,78.735 49.566 C 78.882 49.510,79.147 49.639,79.369 49.875 C 79.578 50.098,79.975 50.324,80.250 50.378 C 81.219 50.567,81.667 50.815,81.667 51.163 C 81.667 51.492,81.762 51.500,85.488 51.500 L 89.310 51.500 89.363 51.125 C 89.408 50.811,89.536 50.741,90.145 50.698 C 90.923 50.642,91.134 50.467,93.083 48.263 C 93.772 47.484,93.985 47.338,94.312 47.418 C 94.677 47.509,94.697 47.481,94.575 47.050 C 94.315 46.130,94.569 44.045,94.908 44.326 C 95.268 44.625,95.329 44.009,95.331 40.042 C 95.333 36.456,95.322 36.333,95.003 36.333 C 94.644 36.333,94.623 36.274,94.326 34.375 C 94.222 33.710,94.069 33.167,93.987 33.167 C 93.905 33.167,93.736 32.923,93.611 32.625 C 93.487 32.327,93.261 31.980,93.109 31.855 C 92.957 31.729,92.833 31.520,92.833 31.391 C 92.833 31.262,92.724 31.114,92.590 31.063 C 92.456 31.011,92.301 30.826,92.245 30.651 C 92.190 30.476,92.008 30.333,91.843 30.333 C 91.452 30.333,91.102 29.909,91.226 29.585 C 91.334 29.303,90.918 29.229,90.750 29.500 C 90.637 29.683,89.680 29.725,89.264 29.566 C 89.107 29.506,89.000 29.268,89.000 28.982 L 89.000 28.500 85.208 28.503 C 83.123 28.504,81.332 28.560,81.228 28.628 M188.740 29.637 C 188.824 29.899,188.738 30.053,188.383 30.278 C 188.127 30.442,187.848 30.686,187.765 30.820 C 187.682 30.955,187.326 31.348,186.973 31.693 C 186.621 32.038,186.333 32.398,186.333 32.493 C 186.333 32.589,186.173 32.827,185.977 33.023 C 185.451 33.549,185.327 35.220,185.351 41.417 C 185.362 44.350,185.338 46.862,185.296 47.000 C 185.255 47.137,185.253 47.194,185.291 47.125 C 185.420 46.895,186.000 46.997,186.000 47.250 C 186.000 47.593,188.141 49.624,188.634 49.748 C 188.854 49.803,189.253 50.010,189.522 50.209 C 189.995 50.559,190.182 50.572,195.630 50.637 C 201.788 50.710,202.561 50.632,202.837 49.908 C 202.977 49.539,203.175 49.420,203.548 49.482 C 203.621 49.495,203.667 48.870,203.652 48.095 C 203.627 46.821,203.599 46.710,203.366 46.943 C 203.133 47.177,203.082 47.140,202.845 46.559 C 202.223 45.039,202.835 45.186,196.928 45.132 L 191.693 45.083 191.255 44.672 C 190.693 44.144,190.690 43.034,191.250 43.156 C 191.433 43.196,193.683 43.238,196.250 43.249 C 199.500 43.263,200.208 43.239,198.583 43.169 C 197.300 43.114,196.400 43.048,196.583 43.023 L 196.917 42.977 196.583 42.846 C 196.393 42.772,197.573 42.674,199.333 42.618 C 203.061 42.499,203.080 42.495,203.495 41.555 C 203.788 40.894,203.858 40.835,204.161 40.997 C 204.497 41.177,204.500 41.148,204.481 37.798 C 204.470 35.938,204.427 34.548,204.385 34.708 C 204.143 35.635,203.333 34.408,203.333 33.115 C 203.333 33.004,203.183 32.820,203.000 32.705 C 202.817 32.591,202.667 32.382,202.667 32.242 C 202.667 32.102,202.367 31.693,202.000 31.333 C 201.633 30.974,201.333 30.602,201.333 30.507 C 201.333 30.411,201.160 30.333,200.949 30.333 C 200.398 30.333,199.922 29.942,200.054 29.599 C 200.127 29.409,200.099 29.355,199.970 29.435 C 199.708 29.597,189.103 29.584,188.840 29.421 C 188.688 29.327,188.661 29.385,188.740 29.637 M124.637 29.607 C 123.858 29.746,123.861 29.713,123.783 38.156 C 123.718 45.204,123.676 46.248,123.450 46.413 C 123.211 46.588,123.296 47.050,123.560 47.014 C 123.976 46.959,124.497 47.021,124.480 47.125 C 124.400 47.634,124.542 48.042,124.826 48.116 C 125.005 48.163,125.269 48.381,125.413 48.601 C 125.557 48.820,125.781 49.000,125.911 49.000 C 126.041 49.000,126.252 49.149,126.379 49.330 C 126.506 49.512,126.773 49.685,126.972 49.715 C 127.171 49.746,127.480 49.928,127.659 50.120 C 127.922 50.402,128.249 50.486,129.367 50.557 C 130.929 50.656,145.221 50.570,146.255 50.456 C 147.027 50.370,148.500 49.172,148.500 48.630 C 148.500 48.183,148.803 47.667,149.067 47.667 C 149.487 47.667,149.616 31.822,149.207 30.417 C 148.982 29.645,148.336 29.498,145.369 29.544 L 142.821 29.583 142.924 30.000 C 143.044 30.481,143.030 44.650,142.910 44.844 C 142.794 45.032,140.789 45.220,140.227 45.097 L 139.750 44.992 139.801 37.829 C 139.852 30.722,139.850 30.667,139.514 30.667 C 139.309 30.667,139.077 30.476,138.925 30.183 C 138.551 29.459,134.500 29.218,133.705 29.872 C 133.540 30.008,133.496 31.642,133.505 37.359 C 133.512 41.380,133.477 44.735,133.429 44.814 C 133.314 45.000,130.499 45.220,130.116 45.073 C 129.377 44.789,129.333 44.378,129.331 37.633 C 129.330 30.819,129.282 30.073,128.834 29.834 C 128.508 29.659,125.315 29.487,124.637 29.607 M153.879 29.672 C 152.829 30.002,152.742 32.861,153.736 34.373 L 154.036 34.830 156.976 34.742 C 158.926 34.684,160.450 34.726,161.500 34.869 L 163.083 35.083 163.049 35.562 C 163.030 35.825,162.993 36.063,162.965 36.091 C 162.938 36.118,161.165 36.162,159.026 36.189 C 155.656 36.230,155.111 36.273,154.943 36.509 C 154.837 36.658,154.563 36.879,154.333 37.000 C 154.104 37.121,153.819 37.358,153.699 37.526 C 153.579 37.695,153.375 37.833,153.246 37.833 C 153.117 37.833,152.931 37.983,152.833 38.167 C 152.735 38.350,152.562 38.500,152.447 38.500 C 152.333 38.500,152.151 38.734,152.043 39.021 C 151.879 39.456,151.777 39.528,151.423 39.460 C 150.969 39.374,150.887 39.487,151.187 39.787 C 151.489 40.089,151.216 41.500,150.856 41.500 C 150.697 41.500,150.495 41.429,150.408 41.341 C 150.308 41.241,150.264 41.932,150.287 43.216 C 150.322 45.163,150.340 45.254,150.693 45.338 C 151.129 45.443,151.381 46.187,151.169 46.745 C 151.017 47.143,151.223 47.500,151.604 47.500 C 151.848 47.500,152.833 48.455,152.833 48.692 C 152.833 48.953,153.721 49.775,154.148 49.911 C 154.448 50.006,154.515 50.124,154.453 50.447 C 154.384 50.812,154.417 50.846,154.729 50.729 C 154.924 50.657,157.858 50.594,161.250 50.590 C 169.074 50.581,168.790 50.704,168.821 47.302 C 168.831 46.067,169.114 45.041,169.193 45.948 C 169.278 46.922,169.461 43.400,169.477 40.500 C 169.498 36.759,169.411 35.768,169.071 35.898 C 168.835 35.989,168.747 35.672,168.567 34.083 C 168.483 33.342,168.352 32.989,168.060 32.716 C 167.844 32.514,167.667 32.206,167.667 32.031 C 167.667 31.712,166.916 30.833,166.644 30.833 C 166.565 30.833,166.500 30.731,166.500 30.605 C 166.500 30.465,166.240 30.342,165.820 30.286 C 165.447 30.236,165.052 30.074,164.944 29.927 C 164.705 29.599,154.836 29.372,153.879 29.672 M172.360 29.666 C 171.373 29.899,171.420 29.405,171.370 40.001 L 171.323 49.820 171.808 50.070 C 172.241 50.294,176.214 50.470,177.378 50.317 C 177.664 50.279,177.779 36.170,177.500 35.333 C 177.428 35.118,177.842 35.077,180.458 35.038 C 183.093 34.999,183.500 34.957,183.500 34.731 C 183.500 34.587,183.656 34.428,183.846 34.378 C 184.297 34.260,184.286 29.948,183.833 29.663 C 183.532 29.473,173.166 29.475,172.360 29.666 M107.883 31.500 C 107.883 32.004,107.915 32.210,107.953 31.958 C 107.991 31.706,107.991 31.294,107.953 31.042 C 107.915 30.790,107.883 30.996,107.883 31.500 M150.223 34.833 C 150.223 35.521,150.252 35.802,150.288 35.458 C 150.324 35.115,150.324 34.552,150.288 34.208 C 150.252 33.865,150.223 34.146,150.223 34.833 M88.049 34.649 C 88.214 34.659,88.533 34.851,88.758 35.076 L 89.167 35.485 89.167 40.136 L 89.167 44.788 88.737 45.217 C 88.196 45.759,88.080 45.773,85.222 45.642 C 81.359 45.467,81.431 45.589,81.622 39.491 L 81.753 35.302 82.172 34.943 C 82.564 34.607,85.177 34.476,88.049 34.649 M197.700 35.008 C 198.580 35.409,198.601 36.749,197.734 37.144 C 197.197 37.388,192.026 37.398,191.389 37.156 C 190.213 36.709,190.479 35.282,191.795 34.978 C 192.574 34.798,197.292 34.822,197.700 35.008 M150.205 37.667 C 150.205 37.987,150.240 38.119,150.282 37.958 C 150.323 37.798,150.323 37.535,150.282 37.375 C 150.240 37.215,150.205 37.346,150.205 37.667 M6.789 39.982 C 6.681 40.267,6.464 40.542,6.307 40.592 C 6.149 40.642,5.935 40.942,5.831 41.258 C 5.679 41.717,5.551 41.836,5.195 41.846 C 4.950 41.854,4.844 41.897,4.958 41.944 C 5.323 42.091,5.194 42.808,4.750 43.099 C 4.467 43.284,4.333 43.524,4.333 43.847 C 4.333 44.144,4.214 44.385,4.014 44.493 C 3.838 44.587,3.644 44.889,3.584 45.164 C 3.523 45.440,3.384 45.721,3.275 45.791 C 3.166 45.860,2.982 46.131,2.867 46.394 C 2.699 46.776,2.575 46.855,2.245 46.792 C 1.793 46.705,1.759 46.783,1.985 47.378 C 2.155 47.825,2.056 48.056,1.625 48.215 C 1.428 48.288,1.333 48.501,1.333 48.871 C 1.333 49.239,1.224 49.488,1.000 49.628 C 0.817 49.742,0.667 49.979,0.667 50.154 C 0.667 50.650,0.487 51.000,0.232 51.000 C -0.171 51.000,-0.060 51.945,0.355 52.054 C 0.709 52.147,0.720 52.308,0.418 53.042 C 0.319 53.280,0.386 53.333,0.786 53.333 C 1.277 53.333,2.167 54.355,2.167 54.919 C 2.167 55.041,2.345 55.353,2.563 55.612 C 2.972 56.098,3.000 56.160,3.000 56.583 C 3.000 56.721,3.110 56.833,3.244 56.833 C 3.533 56.833,3.833 57.338,3.833 57.822 C 3.833 58.012,3.903 58.167,3.987 58.167 C 4.072 58.167,4.229 58.434,4.337 58.762 C 4.445 59.089,4.631 59.394,4.750 59.440 C 4.870 59.486,5.016 59.780,5.075 60.095 C 5.138 60.431,5.280 60.667,5.421 60.667 C 5.710 60.667,5.905 61.344,5.754 61.821 C 5.662 62.110,5.715 62.167,6.076 62.167 C 6.422 62.167,6.528 62.266,6.607 62.662 C 6.662 62.934,6.843 63.200,7.011 63.254 C 7.179 63.307,7.360 63.488,7.413 63.655 C 7.466 63.823,7.664 64.138,7.851 64.354 C 8.073 64.610,8.169 64.908,8.125 65.207 C 8.081 65.506,8.133 65.667,8.273 65.667 C 8.537 65.667,8.833 66.190,8.833 66.656 C 8.833 66.845,8.931 67.000,9.050 67.000 C 9.169 67.000,9.357 67.251,9.468 67.557 C 9.579 67.864,9.856 68.200,10.085 68.304 C 10.349 68.424,10.500 68.630,10.501 68.871 C 10.502 69.312,11.402 70.000,11.976 70.000 C 12.402 70.000,12.420 70.507,12.000 70.697 C 11.862 70.759,14.225 70.800,17.250 70.788 C 20.275 70.776,22.150 70.743,21.417 70.715 C 20.683 70.686,19.920 70.579,19.720 70.476 C 19.520 70.373,19.241 70.333,19.100 70.387 C 18.959 70.441,18.805 70.422,18.756 70.344 C 18.602 70.093,19.059 70.034,21.345 70.011 C 28.960 69.934,30.291 69.783,30.060 69.024 C 29.986 68.782,29.919 68.171,29.912 67.667 C 29.900 66.884,29.853 66.751,29.582 66.751 C 29.386 66.750,29.230 66.598,29.171 66.349 C 29.118 66.128,28.956 65.903,28.809 65.849 C 28.432 65.709,27.706 64.802,27.417 64.110 C 27.282 63.787,27.096 63.476,27.003 63.418 C 26.737 63.254,26.790 62.000,27.062 62.000 C 27.233 62.000,27.262 61.862,27.177 61.458 C 27.054 60.875,26.665 60.801,26.167 61.265 C 25.462 61.922,24.834 62.333,24.535 62.333 C 24.189 62.333,24.000 62.633,24.000 63.180 C 24.000 63.429,23.880 63.501,23.458 63.503 C 23.160 63.504,22.092 63.552,21.083 63.610 C 20.075 63.667,19.137 63.709,19.000 63.703 C 16.118 63.586,15.022 63.435,14.945 63.142 C 14.901 62.972,14.745 62.833,14.599 62.833 C 14.296 62.833,14.234 62.248,14.518 62.072 C 14.775 61.913,14.331 61.649,13.986 61.756 C 13.720 61.839,13.333 61.239,13.333 60.742 C 13.333 60.609,13.262 60.500,13.174 60.500 C 13.087 60.500,12.894 60.243,12.745 59.930 C 12.596 59.616,12.368 59.318,12.237 59.268 C 12.104 59.217,12.000 58.955,12.000 58.672 C 12.000 58.331,11.918 58.167,11.746 58.167 C 11.353 58.167,11.056 57.382,11.301 56.990 C 11.572 56.557,11.555 56.500,11.155 56.500 C 10.731 56.500,10.271 56.070,10.426 55.819 C 10.488 55.717,10.774 55.670,11.061 55.714 C 11.360 55.759,11.797 55.681,12.083 55.532 L 12.583 55.271 11.992 55.127 C 11.584 55.028,11.223 54.754,10.826 54.242 C 10.401 53.696,10.067 53.453,9.552 53.317 C 7.650 52.814,7.807 49.430,9.836 47.180 C 10.201 46.775,10.500 46.368,10.500 46.277 C 10.500 46.185,10.629 45.967,10.787 45.793 C 11.337 45.185,11.518 44.000,11.061 44.000 C 10.788 44.000,10.643 43.879,10.571 43.592 C 10.514 43.368,10.282 43.062,10.054 42.913 C 9.808 42.751,9.679 42.546,9.737 42.404 C 9.790 42.274,9.883 42.042,9.945 41.890 C 10.033 41.670,9.983 41.632,9.701 41.706 C 9.428 41.777,9.164 41.602,8.551 40.941 C 7.162 39.444,7.021 39.368,6.789 39.982 M162.596 41.597 C 163.421 41.820,163.751 43.738,163.156 44.853 C 162.994 45.157,159.234 45.456,158.156 45.251 C 155.861 44.815,155.904 41.784,158.210 41.475 C 159.118 41.353,161.993 41.433,162.596 41.597 M150.274 47.247 C 150.182 47.487,150.769 47.953,150.944 47.779 C 150.988 47.734,150.873 47.649,150.688 47.590 C 150.481 47.524,150.386 47.389,150.443 47.241 C 150.494 47.109,150.498 47.000,150.452 47.000 C 150.406 47.000,150.326 47.111,150.274 47.247 M27.667 50.009 C 27.667 50.105,27.423 50.299,27.125 50.440 C 26.315 50.822,25.535 51.263,25.251 51.499 C 25.112 51.615,24.757 51.759,24.462 51.819 C 23.699 51.975,23.445 52.826,23.988 53.404 C 24.212 53.643,24.339 53.957,24.305 54.192 C 24.264 54.487,24.363 54.633,24.708 54.784 C 25.064 54.939,25.167 55.097,25.167 55.492 C 25.167 55.838,25.248 56.000,25.423 56.000 C 25.569 56.000,25.823 56.337,26.015 56.786 C 26.201 57.218,26.404 57.496,26.468 57.403 C 26.785 56.939,27.712 56.469,28.176 56.537 C 28.468 56.580,28.660 56.536,28.648 56.430 C 28.599 56.003,28.696 55.862,29.173 55.664 C 29.452 55.548,29.771 55.325,29.882 55.168 C 29.993 55.010,30.252 54.828,30.458 54.763 C 30.886 54.627,30.936 54.225,30.631 53.380 C 30.472 52.940,30.472 52.750,30.631 52.496 C 30.912 52.045,30.885 51.948,30.506 52.047 C 30.011 52.176,29.785 51.779,29.916 51.006 C 30.023 50.371,30.006 50.333,29.618 50.333 C 29.392 50.333,29.114 50.221,29.000 50.083 C 28.766 49.801,27.667 49.739,27.667 50.009 M19.250 53.833 C 19.084 54.017,18.838 54.167,18.702 54.167 C 18.567 54.167,18.198 54.326,17.882 54.521 C 17.407 54.815,17.238 54.844,16.897 54.688 C 16.363 54.445,16.325 54.450,16.441 54.753 C 16.494 54.892,16.459 55.211,16.363 55.461 C 15.930 56.586,15.940 57.000,16.400 57.000 C 16.706 57.000,16.854 57.108,16.923 57.381 C 16.975 57.591,17.183 57.834,17.384 57.923 C 17.603 58.019,17.771 58.262,17.801 58.529 C 17.953 59.838,19.096 60.308,20.417 59.602 C 20.692 59.456,21.050 59.335,21.214 59.334 C 21.377 59.334,21.553 59.224,21.604 59.090 C 21.655 58.956,21.855 58.796,22.046 58.735 C 23.425 58.298,23.711 57.032,22.730 55.719 C 22.512 55.428,22.333 54.996,22.333 54.761 C 22.333 54.495,22.240 54.333,22.087 54.333 C 21.952 54.333,21.718 54.146,21.568 53.917 C 21.202 53.359,19.728 53.306,19.250 53.833 " stroke="none" fill="#2ea1d5" fill-rule="evenodd"></path></g></svg>