<svg id="svg" xmlns="http://www.w3.org/2000/svg" xmlns:xlink="http://www.w3.org/1999/xlink" width="400" height="400" viewBox="0, 0, 400,400"><g id="svgg"><path id="path0" d="M3.125 6.250 C 3.125 10.417,5.208 12.500,9.375 12.500 C 13.542 12.500,15.625 10.417,15.625 6.250 C 15.625 2.083,13.542 0.000,9.375 0.000 C 5.208 0.000,3.125 2.083,3.125 6.250 M28.125 6.250 C 28.125 10.417,30.208 12.500,34.375 12.500 C 38.542 12.500,40.625 10.417,40.625 6.250 C 40.625 2.083,38.542 0.000,34.375 0.000 C 30.208 0.000,28.125 2.083,28.125 6.250 M53.125 7.415 C 53.125 14.580,54.418 15.634,63.281 15.694 C 96.601 15.919,137.370 56.666,137.469 89.844 C 137.496 98.717,138.537 100.000,145.710 100.000 C 163.056 100.000,149.228 53.089,124.632 28.493 C 100.036 3.897,53.125 -9.931,53.125 7.415 M121.875 7.401 C 121.875 13.695,123.779 15.057,134.603 16.509 C 159.215 19.810,183.317 43.927,186.621 68.559 C 188.067 79.345,189.434 81.250,195.724 81.250 C 210.813 81.250,199.588 40.256,179.301 21.278 C 158.545 1.859,121.875 -7.002,121.875 7.401 M213.750 10.625 C 200.645 23.730,199.030 37.500,210.599 37.500 C 216.044 37.500,218.627 35.291,220.115 29.363 C 221.405 24.220,225.555 19.943,231.391 17.740 C 237.902 15.283,240.625 12.153,240.625 7.127 C 240.625 -4.091,226.647 -2.272,213.750 10.625 M270.313 16.876 C 243.246 28.806,220.893 75.000,242.188 75.000 C 248.203 75.000,250.003 73.382,250.012 67.969 C 250.039 51.491,273.366 28.164,289.844 28.137 C 295.257 28.128,296.875 26.328,296.875 20.313 C 296.875 11.180,286.332 9.816,270.313 16.876 M332.493 26.235 C 302.898 40.016,278.226 73.864,278.156 100.781 C 278.103 120.771,292.240 117.816,294.966 97.267 C 298.768 68.601,327.976 39.393,356.642 35.591 C 370.018 33.816,371.875 32.667,371.875 26.160 C 371.875 16.040,354.316 16.074,332.493 26.235 M384.375 25.000 C 384.375 29.167,386.458 31.250,390.625 31.250 C 394.792 31.250,396.875 29.167,396.875 25.000 C 396.875 20.833,394.792 18.750,390.625 18.750 C 386.458 18.750,384.375 20.833,384.375 25.000 M9.375 43.750 C 9.375 47.917,11.458 50.000,15.625 50.000 C 19.792 50.000,21.875 47.917,21.875 43.750 C 21.875 39.583,19.792 37.500,15.625 37.500 C 11.458 37.500,9.375 39.583,9.375 43.750 M34.375 45.313 C 34.375 51.689,35.904 53.125,42.694 53.125 C 63.663 53.125,93.750 83.212,93.750 104.181 C 93.750 110.971,95.186 112.500,101.563 112.500 C 117.337 112.500,108.079 77.093,87.100 57.190 C 66.451 37.598,34.375 30.373,34.375 45.313 M9.375 87.500 C 9.375 91.667,11.458 93.750,15.625 93.750 C 19.792 93.750,21.875 91.667,21.875 87.500 C 21.875 83.333,19.792 81.250,15.625 81.250 C 11.458 81.250,9.375 83.333,9.375 87.500 M34.375 89.063 C 34.375 94.601,36.070 96.875,40.199 96.875 C 47.729 96.875,62.500 111.646,62.500 119.176 C 62.500 123.305,64.774 125.000,70.313 125.000 C 80.141 125.000,80.816 115.389,72.002 100.933 C 60.810 82.578,34.375 74.238,34.375 89.063 M234.375 93.750 C 234.375 97.917,236.458 100.000,240.625 100.000 C 244.792 100.000,246.875 97.917,246.875 93.750 C 246.875 89.583,244.792 87.500,240.625 87.500 C 236.458 87.500,234.375 89.583,234.375 93.750 M190.625 100.000 C 190.625 104.167,192.708 106.250,196.875 106.250 C 201.042 106.250,203.125 104.167,203.125 100.000 C 203.125 95.833,201.042 93.750,196.875 93.750 C 192.708 93.750,190.625 95.833,190.625 100.000 M140.625 118.750 C 140.625 122.917,142.708 125.000,146.875 125.000 C 151.042 125.000,153.125 122.917,153.125 118.750 C 153.125 114.583,151.042 112.500,146.875 112.500 C 142.708 112.500,140.625 114.583,140.625 118.750 M246.875 118.750 C 246.875 122.917,248.958 125.000,253.125 125.000 C 257.292 125.000,259.375 122.917,259.375 118.750 C 259.375 114.583,257.292 112.500,253.125 112.500 C 248.958 112.500,246.875 114.583,246.875 118.750 M189.063 122.001 C 187.344 123.618,181.367 128.594,175.781 133.060 C 152.577 151.613,166.482 187.500,196.875 187.500 C 227.271 187.500,241.166 151.629,217.969 133.043 C 212.383 128.568,206.114 123.521,204.038 121.828 C 199.386 118.034,193.205 118.105,189.063 122.001 M80.114 133.239 C 73.536 139.816,71.875 144.455,71.875 156.250 C 71.875 185.384,105.678 199.719,126.136 179.261 C 137.880 167.518,137.880 144.982,126.136 133.239 C 119.559 126.661,114.920 125.000,103.125 125.000 C 91.330 125.000,86.691 126.661,80.114 133.239 M261.364 133.239 C 249.620 144.982,249.620 167.518,261.364 179.261 C 273.107 191.005,295.643 191.005,307.386 179.261 C 319.130 167.518,319.130 144.982,307.386 133.239 C 300.809 126.661,296.170 125.000,284.375 125.000 C 272.580 125.000,267.941 126.661,261.364 133.239 M115.000 144.375 C 117.063 146.438,118.750 151.781,118.750 156.250 C 118.750 160.719,117.063 166.063,115.000 168.125 C 112.938 170.188,107.594 171.875,103.125 171.875 C 89.044 171.875,81.416 154.209,91.250 144.375 C 93.313 142.313,98.656 140.625,103.125 140.625 C 107.594 140.625,112.937 142.313,115.000 144.375 M208.750 144.375 C 218.584 154.209,210.956 171.875,196.875 171.875 C 186.548 171.875,181.250 166.577,181.250 156.250 C 181.250 151.781,182.938 146.438,185.000 144.375 C 187.063 142.313,192.406 140.625,196.875 140.625 C 201.344 140.625,206.688 142.313,208.750 144.375 M296.250 144.375 C 306.084 154.209,298.456 171.875,284.375 171.875 C 274.048 171.875,268.750 166.577,268.750 156.250 C 268.750 145.923,274.048 140.625,284.375 140.625 C 288.844 140.625,294.188 142.313,296.250 144.375 M43.778 231.193 C 23.421 271.760,23.419 275.000,43.750 275.000 L 59.375 275.000 59.375 329.261 L 59.375 383.523 67.614 391.761 L 75.852 400.000 196.875 400.000 L 317.898 400.000 326.136 391.761 L 334.375 383.523 334.375 329.261 L 334.375 275.000 350.000 275.000 C 370.331 275.000,370.329 271.760,349.972 231.193 L 334.318 200.000 196.875 200.000 L 59.432 200.000 43.778 231.193 M240.625 237.500 L 228.055 262.500 137.430 262.500 L 46.805 262.500 59.375 237.500 L 71.945 212.500 162.570 212.500 L 253.195 212.500 240.625 237.500 M334.375 237.500 L 346.945 262.500 325.070 262.500 L 303.195 262.500 290.625 237.500 L 278.055 212.500 299.930 212.500 L 321.805 212.500 334.375 237.500 M259.375 314.202 L 259.375 387.778 171.982 386.858 C 63.594 385.716,73.782 392.058,72.441 324.897 L 71.445 275.000 97.043 275.000 C 119.582 275.000,122.170 275.567,118.701 279.746 C 111.963 287.866,123.933 298.809,131.783 291.706 C 137.173 286.827,137.210 286.110,132.353 280.743 C 127.336 275.199,128.487 275.000,165.625 275.000 C 202.763 275.000,203.914 275.199,198.897 280.743 C 194.040 286.110,194.077 286.827,199.467 291.706 C 207.317 298.809,219.287 287.866,212.549 279.746 C 209.113 275.606,210.658 275.000,224.651 275.000 L 240.693 275.000 249.122 257.813 C 253.759 248.359,257.962 240.625,258.463 240.625 C 258.965 240.625,259.375 273.735,259.375 314.202 M306.515 275.000 L 322.305 275.000 321.309 324.897 C 320.130 383.928,319.704 384.792,290.720 386.888 L 271.875 388.251 272.025 313.657 L 272.176 239.063 281.450 257.031 L 290.725 275.000 306.515 275.000 M138.750 298.125 C 123.800 313.075,123.419 335.047,137.824 351.454 C 152.291 367.931,178.959 367.931,193.426 351.454 C 216.413 325.274,199.992 287.500,165.625 287.500 C 151.311 287.500,148.109 288.766,138.750 298.125 M181.250 309.375 C 189.639 317.764,189.277 332.598,180.469 341.406 L 173.438 348.438 172.350 340.727 C 171.752 336.486,172.806 332.502,174.694 331.873 C 184.604 328.570,177.818 318.750,165.625 318.750 C 153.432 318.750,146.646 328.570,156.556 331.873 C 158.444 332.502,159.498 336.486,158.900 340.727 L 157.813 348.438 150.781 341.406 C 136.510 327.135,145.821 303.125,165.625 303.125 C 170.833 303.125,177.778 305.903,181.250 309.375 M103.125 325.000 C 103.125 329.167,105.208 331.250,109.375 331.250 C 113.542 331.250,115.625 329.167,115.625 325.000 C 115.625 320.833,113.542 318.750,109.375 318.750 C 105.208 318.750,103.125 320.833,103.125 325.000 M215.625 325.000 C 215.625 329.167,217.708 331.250,221.875 331.250 C 226.042 331.250,228.125 329.167,228.125 325.000 C 228.125 320.833,226.042 318.750,221.875 318.750 C 217.708 318.750,215.625 320.833,215.625 325.000 M120.247 359.447 C 111.121 369.532,121.755 379.634,131.373 370.016 C 137.568 363.821,137.580 363.541,131.868 358.371 C 126.345 353.374,125.689 353.434,120.247 359.447 M198.996 358.757 C 191.012 367.580,203.303 379.286,211.717 370.872 C 216.663 365.926,216.597 365.208,210.641 359.252 C 204.446 353.057,204.166 353.045,198.996 358.757 M153.125 375.000 C 153.125 380.208,155.208 381.250,165.625 381.250 C 176.042 381.250,178.125 380.208,178.125 375.000 C 178.125 369.792,176.042 368.750,165.625 368.750 C 155.208 368.750,153.125 369.792,153.125 375.000 " stroke="none" fill="#25383C" fill-rule="evenodd"></path></g></svg>