<svg id="svg" xmlns="http://www.w3.org/2000/svg" xmlns:xlink="http://www.w3.org/1999/xlink" width="400" height="400" viewBox="0, 0, 400,400"><g id="svgg"><path id="path0" d="M131.951 6.461 C 126.755 9.933,126.565 10.993,126.564 36.612 C 126.563 58.532,126.636 59.684,128.217 62.497 C 130.068 65.790,134.652 68.750,137.902 68.750 C 140.035 68.750,140.043 68.769,139.502 72.852 C 138.570 79.895,136.529 83.134,126.542 93.412 C 111.352 109.046,110.673 111.308,111.115 144.842 C 111.366 163.841,111.633 168.140,112.739 170.997 C 113.467 172.877,114.063 174.507,114.063 174.619 C 114.063 174.731,112.499 175.057,110.588 175.344 C 102.650 176.534,98.275 179.725,81.151 196.811 C 58.487 219.427,58.564 219.278,57.872 241.417 C 57.355 257.954,56.197 262.467,51.284 267.082 L 49.410 268.843 46.775 267.237 C 38.855 262.409,35.106 264.367,16.685 282.955 C -4.546 304.379,-5.052 306.632,8.431 319.727 C 15.491 326.584,18.005 327.379,21.520 323.864 C 24.973 320.411,24.213 317.820,17.807 311.214 L 12.176 305.407 26.011 291.573 L 39.846 277.738 78.710 316.603 L 117.574 355.467 103.710 369.332 L 89.845 383.196 63.399 356.758 C 33.916 327.284,33.669 327.108,29.197 332.308 C 25.355 336.774,24.997 336.306,55.664 366.909 C 92.569 403.737,87.985 402.752,111.974 379.005 C 130.860 360.309,132.914 356.473,128.190 348.725 L 126.698 346.279 129.560 343.519 C 133.734 339.493,137.974 337.601,145.582 336.369 C 157.199 334.489,159.452 333.020,176.172 316.428 C 185.417 307.253,192.088 301.258,193.859 300.534 C 198.021 298.831,202.793 294.180,204.424 290.234 C 205.708 287.132,206.048 286.840,207.808 287.338 C 222.874 291.593,233.663 282.149,234.233 264.206 C 234.501 255.779,234.694 254.643,235.789 255.063 C 244.756 258.504,256.331 253.421,260.662 244.141 C 262.437 240.337,262.485 239.648,262.492 218.009 L 262.500 195.783 272.140 205.313 C 282.859 215.910,284.821 216.812,288.707 212.926 C 292.484 209.150,291.591 206.996,282.366 197.635 L 274.107 189.254 276.623 188.377 C 286.544 184.919,290.453 187.015,309.652 206.083 C 330.083 226.376,329.669 225.638,329.680 241.886 C 329.691 259.286,331.915 267.418,338.723 274.954 L 341.684 278.231 312.094 307.828 L 282.504 337.425 278.936 334.088 C 272.954 328.492,263.807 324.219,257.813 324.219 C 251.010 324.219,247.782 322.181,235.565 310.174 C 220.980 295.838,219.674 295.084,215.340 298.494 C 210.353 302.417,211.746 305.144,225.586 318.544 C 239.835 332.340,243.473 334.598,254.266 336.345 C 262.020 337.600,266.247 339.475,270.440 343.519 L 273.302 346.279 271.810 348.725 C 267.086 356.473,269.140 360.309,288.026 379.005 C 312.505 403.238,305.361 405.788,356.889 354.419 C 400.525 310.919,400.000 311.515,400.000 305.469 C 400.000 299.723,399.309 298.799,382.670 282.310 C 364.321 264.126,361.063 262.458,353.225 267.237 L 350.590 268.843 348.716 267.082 C 345.267 263.842,342.864 257.661,342.396 250.824 L 341.964 244.531 344.674 244.531 C 348.280 244.531,350.781 241.894,350.781 238.092 C 350.781 234.790,347.962 232.031,344.587 232.031 C 342.690 232.031,342.429 231.645,341.572 227.559 C 339.685 218.565,337.516 215.611,319.548 197.574 C 298.550 176.494,296.741 175.391,283.191 175.391 C 275.114 175.391,274.236 175.547,269.698 177.796 C 262.049 181.588,262.500 183.855,262.500 141.622 C 262.500 100.785,262.356 99.625,256.269 91.370 C 249.422 82.084,245.682 68.750,249.924 68.750 C 252.880 68.750,257.587 65.783,259.492 62.720 C 261.311 59.793,261.328 59.553,261.328 36.719 C 261.328 10.938,261.203 10.287,255.506 6.448 L 252.894 4.688 193.750 4.688 L 134.606 4.688 131.951 6.461 M248.828 36.328 L 248.828 55.859 218.636 56.250 C 184.445 56.692,185.156 56.557,185.156 62.621 C 185.156 68.776,185.042 68.750,212.109 68.750 L 235.938 68.750 235.938 72.618 C 235.938 81.252,238.797 89.170,244.802 97.167 C 250.239 104.407,250.000 100.927,250.000 172.930 L 250.000 238.257 247.852 240.615 C 243.946 244.901,237.117 243.830,235.137 238.621 C 234.684 237.429,234.375 222.688,234.375 202.257 L 234.375 167.898 232.457 165.980 C 229.920 163.443,226.330 163.443,223.793 165.980 L 221.875 167.898 221.875 219.093 L 221.875 270.288 219.611 272.821 C 217.738 274.918,216.781 275.355,214.063 275.355 C 211.344 275.355,210.387 274.918,208.514 272.821 L 206.250 270.288 206.250 219.093 L 206.250 167.898 204.332 165.980 C 201.795 163.443,198.205 163.443,195.668 165.980 L 193.750 167.898 193.750 226.124 L 193.750 284.350 191.486 286.884 C 188.247 290.509,183.628 290.509,180.389 286.884 L 178.125 284.350 178.125 226.124 L 178.125 167.898 176.207 165.980 C 173.755 163.528,169.913 163.432,167.433 165.761 L 165.625 167.460 165.622 218.300 C 165.619 267.735,165.576 269.211,164.059 271.699 C 161.161 276.453,155.593 276.840,151.974 272.539 L 150.000 270.193 150.000 214.039 C 150.000 154.151,150.039 154.759,146.113 153.133 C 139.503 150.395,137.500 153.795,137.500 167.752 C 137.500 179.618,137.456 179.732,133.633 177.755 C 124.818 173.196,123.262 167.360,123.578 140.040 C 123.886 113.382,123.353 114.960,136.685 101.239 C 147.682 89.921,150.464 85.080,151.803 74.938 L 152.620 68.750 159.268 68.750 C 167.273 68.750,169.531 67.357,169.531 62.421 C 169.531 56.926,167.637 56.250,152.238 56.250 L 139.063 56.250 139.063 36.323 L 139.063 16.396 193.945 16.596 L 248.828 16.797 248.828 36.328 M154.688 30.698 C 148.461 33.848,150.683 42.969,157.676 42.969 C 164.409 42.969,166.806 33.894,160.882 30.830 C 158.196 29.442,157.214 29.421,154.688 30.698 M117.434 66.382 C 113.728 67.940,112.952 73.180,115.980 76.207 C 121.382 81.609,130.068 73.927,125.195 68.058 C 123.611 66.150,119.896 65.348,117.434 66.382 M261.775 68.465 C 258.178 73.038,261.218 78.906,267.184 78.906 C 269.589 78.906,272.656 75.481,272.656 72.797 C 272.656 66.918,265.297 63.988,261.775 68.465 M98.438 78.663 C 92.101 81.081,93.591 90.625,100.304 90.625 C 104.117 90.625,106.563 88.368,106.563 84.849 C 106.563 80.579,102.173 77.238,98.438 78.663 M283.773 80.210 C 282.091 80.887,280.399 84.997,280.931 87.115 C 282.727 94.272,292.969 93.222,292.969 85.881 C 292.969 80.960,288.602 78.267,283.773 80.210 M78.480 95.668 C 74.479 99.668,77.106 106.250,82.703 106.250 C 86.028 106.250,89.063 103.267,89.063 100.000 C 89.063 98.478,88.354 96.876,87.145 95.668 C 85.936 94.459,84.335 93.750,82.813 93.750 C 81.290 93.750,79.689 94.459,78.480 95.668 M300.917 97.902 C 296.184 102.940,301.636 110.615,308.168 108.108 C 310.169 107.340,311.885 103.317,311.316 100.725 C 310.309 96.141,304.144 94.467,300.917 97.902 M64.187 112.969 C 58.868 116.695,61.363 124.219,67.917 124.219 C 71.290 124.219,73.438 121.809,73.438 118.025 C 73.438 112.885,68.309 110.082,64.187 112.969 M316.990 116.394 C 311.902 120.396,314.547 127.344,321.158 127.344 C 326.414 127.344,328.736 119.792,324.504 116.463 C 321.917 114.428,319.517 114.406,316.990 116.394 M50.917 133.839 C 48.588 136.319,48.684 140.161,51.136 142.614 C 55.158 146.635,61.719 143.420,61.719 137.428 C 61.719 132.793,54.236 130.307,50.917 133.839 M331.250 136.548 C 325.441 138.381,325.214 146.291,330.909 148.456 C 336.362 150.529,341.567 143.538,338.086 138.818 C 336.976 137.313,333.004 135.994,331.250 136.548 M41.463 155.965 C 37.493 161.012,42.325 167.639,48.425 165.512 C 51.206 164.543,52.344 162.775,52.344 159.426 C 52.344 154.062,44.838 151.674,41.463 155.965 M336.981 161.386 C 333.217 165.150,336.132 171.875,341.528 171.875 C 344.723 171.875,347.656 168.779,347.656 165.406 C 347.656 159.841,341.023 157.343,336.981 161.386 M36.074 178.371 C 32.919 181.728,34.450 187.542,38.774 188.628 C 44.762 190.131,49.073 183.474,45.256 178.621 C 43.093 175.871,38.538 175.747,36.074 178.371 M341.762 185.195 C 338.214 189.116,341.126 195.625,346.428 195.625 C 351.643 195.625,354.285 189.838,351.128 185.330 C 349.466 182.957,343.860 182.876,341.762 185.195 M123.377 188.377 L 125.893 189.254 117.634 197.635 C 108.409 206.996,107.516 209.150,111.293 212.926 C 115.179 216.812,117.141 215.910,127.860 205.313 L 137.500 195.783 137.500 233.690 C 137.500 275.894,137.544 276.298,142.672 281.579 C 148.057 287.123,155.976 289.270,163.701 287.279 C 165.927 286.705,166.139 286.847,167.123 289.570 C 167.701 291.167,169.704 294.109,171.575 296.110 L 174.976 299.746 163.828 310.731 C 152.241 322.146,148.916 324.219,142.187 324.219 C 136.193 324.219,127.046 328.492,121.064 334.088 L 117.496 337.425 87.906 307.828 L 58.316 278.231 61.277 274.954 C 68.085 267.418,70.309 259.286,70.320 241.886 C 70.331 225.637,69.917 226.376,90.348 206.085 C 109.494 187.071,113.487 184.930,123.377 188.377 M33.650 202.058 C 30.904 205.550,31.603 209.491,35.308 211.407 C 39.857 213.759,44.531 210.929,44.531 205.822 C 44.531 200.404,37.000 197.800,33.650 202.058 M343.105 209.621 C 340.776 212.100,340.872 215.943,343.324 218.395 C 347.084 222.155,352.765 220.122,353.632 214.706 C 354.555 208.944,347.116 205.351,343.105 209.621 M35.292 225.246 C 32.138 228.603,33.668 234.417,37.993 235.503 C 43.980 237.006,48.292 230.349,44.475 225.496 C 42.312 222.746,37.757 222.622,35.292 225.246 M40.199 248.011 C 36.230 251.980,39.074 258.594,44.750 258.594 C 50.240 258.594,52.817 251.965,48.864 248.011 C 47.655 246.803,46.053 246.094,44.531 246.094 C 43.009 246.094,41.408 246.803,40.199 248.011 M374.222 291.801 L 387.881 305.476 349.020 344.338 L 310.158 383.199 296.293 369.334 L 282.428 355.469 321.094 316.797 C 342.360 295.527,359.941 278.125,360.162 278.125 C 360.383 278.125,366.710 284.279,374.222 291.801 M358.984 297.819 C 352.985 301.259,355.151 310.156,361.987 310.156 C 368.060 310.156,370.840 303.532,366.563 299.255 C 364.072 296.765,361.629 296.302,358.984 297.819 M252.623 344.524 C 246.202 347.118,247.854 356.250,254.744 356.250 C 258.687 356.250,260.938 354.121,260.938 350.391 C 260.938 347.786,258.803 344.531,257.095 344.531 C 256.701 344.531,255.910 344.377,255.337 344.189 C 254.765 344.002,253.543 344.152,252.623 344.524 M137.891 348.568 C 134.083 350.829,133.315 354.692,135.994 358.098 C 139.422 362.455,146.875 359.743,146.875 354.138 C 146.875 349.573,141.651 346.334,137.891 348.568 M86.855 352.589 C 82.853 356.850,85.649 363.636,91.406 363.636 C 95.488 363.636,97.656 361.362,97.656 357.081 C 97.656 351.380,90.706 348.490,86.855 352.589 M229.934 352.349 C 227.814 353.203,226.563 355.452,226.563 358.406 C 226.563 363.666,234.160 366.178,237.443 362.004 C 241.677 356.622,236.345 349.766,229.934 352.349 M160.403 354.663 C 156.731 356.206,155.846 361.895,158.839 364.708 C 162.871 368.495,169.531 365.649,169.531 360.137 C 169.531 355.851,164.605 352.897,160.403 354.663 M206.044 357.227 C 201.441 360.722,204.082 368.750,209.834 368.750 C 214.841 368.750,217.674 361.424,214.063 357.813 C 212.285 356.035,208.023 355.723,206.044 357.227 M182.031 358.594 C 179.995 360.630,179.913 365.661,181.887 367.448 C 186.165 371.319,192.500 368.600,192.500 362.891 C 192.500 357.657,185.742 354.883,182.031 358.594 " stroke="none" fill="#25383C" fill-rule="evenodd"></path></g></svg>