<svg id="svg" xmlns="http://www.w3.org/2000/svg" xmlns:xlink="http://www.w3.org/1999/xlink" width="400" height="400" viewBox="0, 0, 400,400"><g id="svgg"><path id="path0" d="M139.107 3.053 C 136.270 7.644,142.940 29.378,149.905 38.232 C 156.024 46.011,165.767 50.942,182.031 54.493 C 188.443 55.893,190.625 58.238,190.625 63.730 L 190.625 71.091 178.433 65.059 C 159.910 55.894,133.141 58.019,131.932 68.750 C 129.612 89.336,154.352 116.874,178.659 120.760 C 194.847 123.349,193.917 126.605,170.313 150.000 C 147.072 173.034,146.265 175.000,160.049 175.000 C 167.827 175.000,173.476 171.673,185.049 160.274 L 200.000 145.547 214.951 160.274 C 226.524 171.673,232.173 175.000,239.951 175.000 C 253.735 175.000,252.928 173.034,229.688 150.000 C 206.083 126.605,205.153 123.349,221.341 120.760 C 245.648 116.874,270.388 89.336,268.068 68.750 C 266.859 58.019,240.090 55.894,221.567 65.059 L 209.375 71.091 209.375 63.730 C 209.375 58.205,211.518 55.935,217.969 54.629 C 242.704 49.622,258.291 33.976,260.054 12.387 L 260.938 1.563 245.520 0.587 C 225.483 -0.682,218.571 1.241,208.025 11.014 C 200.762 17.745,198.766 18.341,195.768 14.672 C 185.061 1.567,145.091 -6.629,139.107 3.053 M181.701 25.704 C 191.934 35.540,192.013 35.811,184.976 36.883 C 176.609 38.158,164.194 30.880,159.375 21.875 C 153.696 11.264,169.497 13.975,181.701 25.704 M240.625 21.875 C 235.806 30.880,223.391 38.158,215.024 36.883 C 207.987 35.811,208.066 35.540,218.299 25.704 C 230.503 13.975,246.304 11.264,240.625 21.875 M172.149 82.125 C 181.168 88.203,192.062 102.730,189.512 105.279 C 183.743 111.049,150.000 87.655,150.000 77.885 C 150.000 72.684,161.368 74.860,172.149 82.125 M250.000 77.885 C 250.000 84.590,233.113 100.055,222.631 102.949 C 208.973 106.720,208.670 106.518,213.483 96.864 C 220.201 83.389,250.000 67.901,250.000 77.885 M72.397 116.353 C 66.420 122.330,67.972 125.578,85.091 142.913 L 101.433 159.460 74.196 186.696 L 46.960 213.933 30.413 197.591 C 12.606 180.006,9.220 178.593,2.959 186.137 C -0.544 190.359,6.226 198.356,52.666 244.853 L 106.429 298.682 101.341 308.880 C 95.048 321.495,99.850 336.559,111.062 339.373 C 115.173 340.405,119.012 344.370,120.101 348.708 C 121.142 352.856,123.476 356.250,125.288 356.250 C 127.100 356.250,133.632 361.875,139.804 368.750 C 145.976 375.625,152.752 381.250,154.861 381.250 C 156.971 381.250,159.574 384.744,160.646 389.015 C 162.871 397.879,173.677 401.838,186.776 398.589 C 197.499 395.930,202.501 395.930,213.224 398.589 C 226.323 401.838,237.129 397.879,239.354 389.015 C 240.426 384.744,243.029 381.250,245.139 381.250 C 247.248 381.250,254.024 375.625,260.196 368.750 C 266.368 361.875,272.900 356.250,274.712 356.250 C 276.524 356.250,278.858 352.856,279.899 348.708 C 280.988 344.370,284.827 340.405,288.938 339.373 C 300.150 336.559,304.952 321.495,298.659 308.880 L 293.571 298.682 347.334 244.853 C 393.774 198.356,400.544 190.359,397.041 186.137 C 390.780 178.593,387.394 180.006,369.587 197.591 L 353.040 213.933 325.804 186.696 L 298.567 159.460 314.909 142.913 C 332.028 125.578,333.580 122.330,327.603 116.353 C 324.824 113.574,314.868 121.233,285.762 148.541 L 247.567 184.375 200.000 184.375 L 152.433 184.375 114.238 148.541 C 85.132 121.233,75.176 113.574,72.397 116.353 M107.191 219.374 L 79.900 246.792 69.584 236.793 L 59.267 226.794 86.559 199.376 L 113.850 171.958 124.166 181.957 L 134.483 191.956 107.191 219.374 M330.543 236.666 L 320.544 246.983 293.126 219.691 L 265.708 192.400 275.707 182.084 L 285.706 171.767 313.124 199.059 L 340.542 226.350 330.543 236.666 M143.181 225.203 C 130.603 239.065,120.313 252.625,120.313 255.335 C 120.313 272.020,162.420 280.041,180.365 266.774 C 188.768 260.561,189.997 260.434,198.516 264.898 C 203.542 267.531,214.567 270.058,223.016 270.513 C 244.044 271.646,300.011 325.000,280.172 325.000 C 277.860 325.000,273.423 322.187,270.312 318.750 C 257.341 304.417,247.327 315.081,259.375 330.397 C 270.392 344.403,265.166 348.759,250.853 337.500 C 235.599 325.502,224.497 334.596,237.500 348.438 C 248.717 360.378,243.426 368.537,231.159 358.215 C 215.963 345.429,204.068 357.025,218.750 370.313 C 225.771 376.666,227.040 384.375,221.064 384.375 C 218.900 384.375,189.038 356.257,154.704 321.891 L 92.279 259.408 121.859 229.704 C 161.721 189.675,178.662 186.100,143.181 225.203 M278.090 229.653 L 307.620 259.305 293.742 273.445 L 279.865 287.585 267.276 274.892 C 256.021 263.543,255.267 261.867,260.156 259.069 C 266.829 255.251,267.192 248.941,261.034 243.830 C 257.336 240.761,254.823 241.294,248.112 246.572 C 236.106 256.017,214.265 255.462,199.361 245.335 C 187.659 237.383,179.991 237.505,176.848 245.695 C 173.224 255.140,140.625 262.260,140.625 253.607 C 140.625 252.554,152.196 240.062,166.337 225.847 L 192.050 200.000 220.305 200.000 L 248.561 200.000 278.090 229.653 M71.875 226.563 C 71.875 232.813,73.438 234.375,79.688 234.375 C 85.938 234.375,87.500 232.813,87.500 226.563 C 87.500 220.313,85.938 218.750,79.688 218.750 C 73.438 218.750,71.875 220.313,71.875 226.563 M312.500 226.563 C 312.500 232.813,314.063 234.375,320.313 234.375 C 326.563 234.375,328.125 232.813,328.125 226.563 C 328.125 220.313,326.563 218.750,320.313 218.750 C 314.063 218.750,312.500 220.313,312.500 226.563 M126.344 322.229 C 123.681 326.538,115.625 325.489,115.625 320.833 C 115.625 318.542,116.550 315.741,117.681 314.610 C 120.507 311.784,128.470 318.788,126.344 322.229 M145.326 337.522 C 146.396 339.253,145.012 341.536,142.251 342.596 C 136.268 344.892,132.933 342.362,135.809 337.708 C 138.404 333.509,142.793 333.424,145.326 337.522 M164.063 358.854 C 164.063 364.506,157.946 363.474,156.733 357.618 C 156.058 354.359,157.229 352.931,159.858 353.807 C 162.170 354.578,164.063 356.849,164.063 358.854 M185.719 381.604 C 183.056 385.913,175.000 384.864,175.000 380.208 C 175.000 377.917,175.925 375.116,177.056 373.985 C 179.882 371.159,187.845 378.163,185.719 381.604 " stroke="none" fill="#4caf50" fill-rule="evenodd"></path></g></svg>