<svg id="svg" xmlns="http://www.w3.org/2000/svg" xmlns:xlink="http://www.w3.org/1999/xlink" width="400" height="400" viewBox="0, 0, 400,400" version="1.1"><g id="svgg"><path id="path0" d="M179.688 0.530 C 24.625 16.424,-53.067 194.967,40.174 321.145 L 42.233 323.931 40.062 328.567 C 36.704 335.737,36.827 348.927,40.320 356.298 C 54.166 385.518,99.313 378.714,103.071 346.842 C 106.011 321.903,82.120 302.223,59.389 310.860 C 54.217 312.826,54.712 313.194,46.982 301.618 C 1.852 234.026,6.835 144.471,59.200 82.031 C 99.218 34.314,162.739 9.274,222.656 17.596 C 239.924 19.994,240.736 19.994,243.579 17.602 C 249.137 12.926,246.261 4.909,238.423 3.228 C 225.860 0.534,193.950 -0.932,179.688 0.530 M268.750 14.117 C 260.914 17.311,263.302 29.688,271.755 29.688 C 281.983 29.688,283.103 15.378,273.006 13.703 C 271.739 13.493,269.824 13.679,268.750 14.117 M319.922 26.053 C 289.482 36.118,288.640 77.876,318.651 89.104 C 324.642 91.346,334.762 91.362,340.611 89.140 C 345.783 87.174,345.288 86.806,353.018 98.382 C 400.527 169.536,392.249 264.303,333.091 326.520 C 291.255 370.520,232.393 390.542,171.081 381.629 C 157.823 379.702,153.918 381.335,153.909 388.807 C 153.902 394.922,157.295 396.515,175.235 398.817 C 349.908 421.232,465.180 221.425,359.826 78.855 L 357.767 76.069 359.938 71.433 C 371.573 46.589,345.892 17.466,319.922 26.053 M338.573 43.769 C 352.133 52.955,345.963 74.399,329.760 74.399 C 312.498 74.399,306.691 50.816,322.034 43.026 C 326.709 40.653,334.487 41.002,338.573 43.769 M170.898 58.656 C 168.116 60.277,167.188 63.645,167.188 72.112 L 167.188 80.239 160.738 82.337 C 157.191 83.491,150.775 86.131,146.480 88.203 L 138.672 91.971 132.322 85.829 C 126.169 79.878,125.855 79.688,122.183 79.688 L 118.394 79.688 99.041 99.041 C 75.311 122.771,75.507 122.211,86.965 133.486 L 92.015 138.456 88.232 146.353 C 86.151 150.696,83.501 157.160,82.344 160.718 L 80.239 167.187 72.112 167.188 C 57.483 167.188,58.134 165.790,57.542 198.438 C 56.910 233.261,56.715 232.809,72.397 232.811 L 80.340 232.813 82.766 240.039 C 84.101 244.014,86.717 250.430,88.581 254.297 L 91.968 261.328 85.828 267.678 C 79.902 273.806,79.688 274.159,79.687 277.765 L 79.687 281.502 97.852 299.799 C 122.360 324.487,122.254 324.448,133.479 313.042 L 138.443 307.998 146.370 311.708 C 150.730 313.749,157.197 316.373,160.742 317.539 L 167.188 319.660 167.188 327.837 C 167.187 342.805,165.774 342.187,200.000 342.187 C 234.226 342.187,232.813 342.805,232.813 327.837 L 232.813 319.660 239.258 317.539 C 242.803 316.373,249.270 313.749,253.630 311.708 L 261.557 307.998 266.521 313.042 C 277.746 324.448,277.640 324.487,302.148 299.799 L 320.313 281.502 320.313 277.765 C 320.313 274.154,320.105 273.814,314.136 267.678 L 307.960 261.328 310.977 255.361 C 312.636 252.079,315.282 245.663,316.857 241.103 L 319.721 232.813 327.634 232.811 C 342.979 232.809,342.867 233.047,342.920 200.391 C 342.975 166.960,343.081 167.196,328.044 167.190 L 319.761 167.188 317.656 160.718 C 316.499 157.160,313.849 150.696,311.768 146.353 L 307.985 138.456 313.035 133.486 C 324.443 122.260,324.489 122.386,299.825 97.852 L 281.564 79.688 277.796 79.688 C 274.151 79.688,273.821 79.888,267.678 85.829 L 261.328 91.971 253.520 88.203 C 249.225 86.131,242.809 83.491,239.262 82.337 L 232.813 80.239 232.813 72.112 C 232.813 63.510,231.857 60.173,228.950 58.617 C 226.917 57.529,172.771 57.566,170.898 58.656 M216.406 81.628 C 216.406 92.157,217.392 93.457,227.344 96.063 C 236.025 98.335,245.609 102.312,254.161 107.190 C 263.323 112.416,264.715 112.225,272.229 104.711 L 277.718 99.221 289.227 110.711 L 300.736 122.200 294.899 128.198 C 287.607 135.691,287.497 136.679,292.901 146.067 C 297.803 154.584,301.793 164.266,303.960 172.905 C 306.411 182.680,307.647 183.594,318.419 183.594 L 326.563 183.594 326.563 200.000 L 326.563 216.406 318.787 216.406 C 308.842 216.406,304.687 218.683,304.688 224.132 C 304.688 227.167,299.012 241.868,294.462 250.620 C 287.471 264.067,287.473 264.200,294.899 271.778 L 300.735 277.734 289.267 289.235 L 277.800 300.736 271.802 294.899 C 264.217 287.518,263.942 287.507,251.382 294.076 C 242.004 298.982,232.426 302.755,224.609 304.623 C 217.421 306.342,216.406 308.082,216.406 318.699 L 216.406 326.563 200.000 326.563 L 183.594 326.563 183.594 318.699 C 183.594 308.082,182.579 306.342,175.391 304.623 C 167.574 302.755,157.996 298.982,148.618 294.076 C 136.058 287.507,135.783 287.518,128.198 294.899 L 122.200 300.736 110.733 289.235 L 99.265 277.734 105.101 271.778 C 112.527 264.200,112.529 264.067,105.538 250.620 C 100.988 241.868,95.312 227.167,95.313 224.132 C 95.313 218.683,91.158 216.406,81.213 216.406 L 73.438 216.406 73.442 207.617 C 73.444 202.783,73.673 195.400,73.950 191.211 L 74.454 183.594 82.089 183.594 C 92.285 183.594,93.615 182.575,96.040 172.905 C 98.207 164.266,102.197 154.584,107.099 146.067 C 112.503 136.679,112.393 135.691,105.101 128.198 L 99.264 122.200 110.773 110.711 L 122.282 99.221 127.771 104.711 C 135.372 112.311,136.537 112.441,146.600 106.806 C 155.486 101.829,165.901 97.601,174.048 95.662 C 182.546 93.639,183.594 92.094,183.594 81.581 L 183.594 73.438 200.000 73.438 L 216.406 73.438 216.406 81.628 M190.234 135.662 C 147.695 142.494,123.071 188.227,141.007 227.090 C 164.152 277.239,235.848 277.239,258.993 227.090 C 280.352 180.810,240.346 127.614,190.234 135.662 M210.637 152.712 C 240.640 159.788,257.089 193.489,243.757 220.570 C 225.545 257.565,173.930 257.474,156.228 220.416 C 139.134 184.628,172.088 143.621,210.637 152.712 M77.951 327.509 C 84.595 330.605,88.306 338.739,86.410 346.051 C 81.652 364.391,55.245 362.159,54.045 343.316 C 53.191 329.910,65.556 321.734,77.951 327.509 M124.234 371.316 C 121.947 372.473,120.340 375.336,120.324 378.284 C 120.269 388.381,134.829 389.466,136.449 379.486 C 137.518 372.896,130.452 368.170,124.234 371.316 " stroke="none" fill="#25383C" fill-rule="evenodd"></path></g></svg>