<svg id="svg" xmlns="http://www.w3.org/2000/svg" xmlns:xlink="http://www.w3.org/1999/xlink" width="400" height="400" viewBox="0, 0, 400,400"><g id="svgg"><path id="path0" d="M163.749 2.392 C 156.350 7.332,153.125 19.318,153.125 41.872 C 153.125 76.708,147.213 78.754,120.029 53.325 C 91.943 27.052,87.164 27.352,57.258 57.258 C 27.488 87.028,27.125 92.007,52.721 119.417 C 78.192 146.692,76.161 153.125,42.083 153.125 C 2.669 153.125,0.096 155.998,0.096 200.000 C 0.096 244.002,2.669 246.875,42.083 246.875 C 76.161 246.875,78.192 253.308,52.721 280.583 C 27.125 307.993,27.488 312.972,57.258 342.742 C 87.164 372.648,91.943 372.948,120.029 346.675 C 147.213 321.246,153.125 323.292,153.125 358.128 C 153.125 397.309,156.037 399.904,200.000 399.904 C 243.963 399.904,246.875 397.309,246.875 358.128 C 246.875 323.292,252.787 321.246,279.971 346.675 C 308.057 372.948,312.836 372.648,342.742 342.742 C 372.512 312.972,372.875 307.993,347.279 280.583 C 321.808 253.308,323.839 246.875,357.917 246.875 C 397.331 246.875,399.904 244.002,399.904 200.000 C 399.904 155.998,397.331 153.125,357.917 153.125 C 323.839 153.125,321.808 146.692,347.279 119.417 C 372.875 92.007,372.512 87.028,342.742 57.258 C 312.836 27.352,308.057 27.052,279.971 53.325 C 252.787 78.754,246.875 76.708,246.875 41.872 C 246.875 19.318,243.650 7.332,236.251 2.392 C 231.771 -0.600,168.229 -0.600,163.749 2.392 M229.116 160.290 C 259.560 183.511,254.728 228.772,220.046 245.229 C 186.713 261.047,146.647 231.913,150.820 194.890 C 155.075 157.136,199.337 137.576,229.116 160.290 " stroke="none" fill="#4caf50" fill-rule="evenodd"></path></g></svg>