<svg id="svg" version="1.1" xmlns="http://www.w3.org/2000/svg" xmlns:xlink="http://www.w3.org/1999/xlink" width="400" height="400" viewBox="0, 0, 400,400"><g id="svgg"><path id="path0" d="M198.691 155.089 C 199.401 155.177,200.661 155.179,201.491 155.092 C 202.321 155.005,201.740 154.933,200.200 154.931 C 198.660 154.929,197.981 155.000,198.691 155.089 M341.775 350.500 L 340.600 351.800 341.900 350.625 C 342.615 349.979,343.200 349.394,343.200 349.325 C 343.200 349.016,342.870 349.288,341.775 350.500 M89.305 370.687 C 89.914 370.779,90.814 370.777,91.305 370.682 C 91.797 370.587,91.300 370.511,90.200 370.514 C 89.100 370.517,88.697 370.595,89.305 370.687 M309.305 370.687 C 309.914 370.779,310.814 370.777,311.305 370.682 C 311.797 370.587,311.300 370.511,310.200 370.514 C 309.100 370.517,308.697 370.595,309.305 370.687 " stroke="none" fill="#000000" fill-rule="evenodd"></path><path id="path1" d="M157.735 1.300 C 156.265 2.863,153.210 6.908,152.462 8.281 C 152.165 8.825,151.678 10.674,151.378 12.390 C 151.079 14.107,150.421 16.296,149.917 17.256 C 149.004 18.993,148.999 19.089,148.789 39.800 C 148.551 63.309,148.737 62.019,145.243 64.339 C 139.997 67.824,139.655 67.617,122.400 50.532 C 107.143 35.424,106.279 34.687,100.600 31.926 C 91.578 27.539,82.311 28.952,72.528 36.206 C 69.700 38.304,37.200 70.509,37.200 71.215 C 37.200 71.370,36.308 72.614,35.218 73.978 C 34.128 75.341,33.112 76.847,32.961 77.323 C 32.810 77.800,32.238 78.866,31.691 79.693 C 27.736 85.670,29.520 100.122,34.934 105.965 C 35.462 106.534,36.063 107.321,36.270 107.714 C 36.478 108.107,42.757 114.587,50.224 122.114 C 66.556 138.578,66.858 139.046,64.573 144.315 C 63.758 146.194,63.201 146.881,61.873 147.641 L 60.200 148.600 39.400 148.800 C 18.742 148.999,18.588 149.006,16.904 149.906 C 15.972 150.404,13.853 151.071,12.196 151.388 C 10.538 151.705,8.764 152.198,8.253 152.482 C 6.330 153.554,3.796 155.461,1.930 157.243 L -0.000 159.086 -0.000 200.144 L -0.000 241.202 1.698 242.801 C 2.632 243.680,3.521 244.400,3.674 244.400 C 3.826 244.400,4.801 245.135,5.839 246.034 C 8.044 247.942,8.745 248.248,12.162 248.794 C 13.559 249.017,15.760 249.695,17.052 250.300 L 19.400 251.400 40.200 251.600 L 61.000 251.800 62.350 252.763 C 64.492 254.291,66.374 259.359,65.266 260.620 C 65.082 260.829,64.630 261.822,64.261 262.827 C 63.705 264.339,61.381 266.862,50.808 277.427 C 31.024 297.197,29.256 300.042,29.696 311.383 C 29.939 317.643,30.462 319.158,34.300 324.717 C 35.016 325.753,36.074 327.320,36.652 328.200 C 38.271 330.665,68.585 360.923,72.200 363.683 C 73.960 365.027,77.200 367.043,79.400 368.163 L 83.400 370.200 90.000 370.200 L 96.600 370.200 100.600 368.309 C 106.226 365.650,107.020 364.973,122.000 350.057 C 138.417 333.711,139.734 332.807,143.938 335.006 C 148.843 337.571,148.729 336.944,148.783 361.600 L 148.825 380.600 149.823 382.600 C 150.372 383.700,151.092 386.112,151.423 387.959 C 151.968 391.003,152.980 393.600,153.620 393.600 C 153.756 393.600,154.564 394.635,155.415 395.900 C 156.267 397.165,157.422 398.599,157.982 399.086 L 159.000 399.971 200.280 399.986 L 241.560 400.000 242.953 398.300 C 247.825 392.355,248.261 391.576,248.646 388.130 C 248.792 386.817,249.450 384.665,250.153 383.200 L 251.400 380.600 251.600 359.541 C 251.828 335.549,251.430 337.933,255.632 335.381 C 260.230 332.587,261.165 333.193,278.000 349.868 C 293.126 364.850,293.867 365.486,299.400 368.222 L 303.400 370.200 310.000 370.200 L 316.600 370.200 320.714 368.224 C 322.977 367.138,325.039 365.994,325.298 365.682 C 325.556 365.371,326.767 364.437,327.988 363.608 C 334.068 359.479,364.899 327.335,367.266 322.657 C 367.727 321.746,368.414 320.550,368.791 320.000 C 371.706 315.758,371.334 305.651,368.021 299.071 C 365.258 293.582,365.025 293.312,349.866 278.000 C 337.434 265.443,336.528 264.430,335.454 261.894 L 334.307 259.187 335.199 256.802 C 337.167 251.540,335.744 251.837,360.200 251.591 L 381.000 251.382 383.335 250.263 C 384.620 249.648,386.760 248.969,388.090 248.754 C 391.701 248.173,392.898 247.495,398.300 242.969 L 400.000 241.544 400.000 200.203 L 400.000 158.862 398.730 157.592 C 398.032 156.893,396.817 155.909,396.030 155.404 C 395.244 154.899,394.191 154.096,393.691 153.619 C 392.476 152.460,390.663 151.751,388.000 151.393 C 386.790 151.231,384.810 150.626,383.600 150.049 L 381.400 149.000 360.600 148.800 C 335.847 148.562,337.021 148.827,335.069 143.041 C 333.648 138.829,334.471 137.673,349.980 122.074 C 365.005 106.962,365.695 106.163,368.209 100.960 C 371.437 94.279,371.618 85.101,368.622 80.000 C 368.170 79.230,367.468 77.946,367.062 77.147 C 366.657 76.348,365.622 74.844,364.762 73.804 C 363.903 72.764,363.200 71.727,363.200 71.499 C 363.200 70.608,331.382 39.100,327.733 36.378 C 317.487 28.734,308.589 27.476,298.811 32.289 C 293.731 34.789,292.934 35.476,278.800 49.539 C 261.358 66.893,260.466 67.489,255.800 64.902 C 254.920 64.415,253.660 63.564,253.000 63.013 L 251.800 62.011 251.600 40.706 L 251.400 19.400 250.307 17.320 C 249.690 16.147,249.020 13.968,248.768 12.320 C 248.283 9.135,247.471 7.044,246.425 6.286 C 246.056 6.019,245.143 4.906,244.397 3.813 C 243.651 2.719,242.582 1.420,242.021 0.925 L 241.000 0.025 199.978 0.013 L 158.957 0.000 157.735 1.300 M211.670 156.443 C 212.918 157.069,214.718 157.697,215.670 157.839 C 216.621 157.981,218.210 158.599,219.200 159.212 C 220.190 159.826,221.691 160.612,222.535 160.958 C 225.874 162.329,231.901 167.838,237.493 174.630 C 238.203 175.494,239.060 177.002,239.396 177.982 C 239.732 178.962,240.427 180.222,240.941 180.782 C 241.488 181.379,242.081 182.793,242.374 184.200 C 242.648 185.520,243.397 187.542,244.037 188.694 L 245.200 190.788 245.200 200.203 C 245.200 209.559,245.194 209.626,244.206 211.119 C 243.660 211.945,242.912 213.876,242.545 215.410 C 242.178 216.945,241.534 218.584,241.113 219.053 C 240.693 219.522,239.934 220.927,239.427 222.175 C 237.519 226.868,225.879 238.441,222.116 239.385 C 221.536 239.531,220.327 240.164,219.430 240.791 C 218.534 241.419,216.892 242.118,215.782 242.344 C 214.672 242.571,212.602 243.306,211.182 243.978 L 208.600 245.199 199.941 245.200 L 191.281 245.200 189.063 244.033 C 187.842 243.391,185.856 242.661,184.648 242.410 C 183.440 242.159,181.675 241.428,180.726 240.784 C 179.777 240.141,178.817 239.611,178.594 239.607 C 177.949 239.596,175.280 238.075,174.089 237.041 C 166.380 230.345,161.876 225.379,160.936 222.538 C 160.583 221.472,159.880 220.150,159.375 219.600 C 158.833 219.010,158.193 217.457,157.813 215.809 C 157.459 214.274,156.700 212.217,156.126 211.237 L 155.082 209.457 155.082 200.000 C 155.082 190.567,155.085 190.539,156.112 188.772 C 156.678 187.797,157.439 185.830,157.803 184.400 C 158.167 182.970,158.818 181.420,159.249 180.956 C 159.681 180.492,160.394 179.165,160.834 178.008 C 162.573 173.430,173.732 162.269,177.998 160.841 C 178.766 160.584,180.053 159.918,180.856 159.361 C 181.660 158.804,183.393 158.097,184.708 157.791 C 186.023 157.484,187.796 156.821,188.648 156.317 C 191.893 154.397,207.763 154.484,211.670 156.443 " stroke="none" fill="#e2c60c" fill-rule="evenodd"></path><path id="path2" d="M198.691 155.089 C 199.401 155.177,200.661 155.179,201.491 155.092 C 202.321 155.005,201.740 154.933,200.200 154.931 C 198.660 154.929,197.981 155.000,198.691 155.089 M341.775 350.500 L 340.600 351.800 341.900 350.625 C 342.615 349.979,343.200 349.394,343.200 349.325 C 343.200 349.016,342.870 349.288,341.775 350.500 M89.305 370.687 C 89.914 370.779,90.814 370.777,91.305 370.682 C 91.797 370.587,91.300 370.511,90.200 370.514 C 89.100 370.517,88.697 370.595,89.305 370.687 M309.305 370.687 C 309.914 370.779,310.814 370.777,311.305 370.682 C 311.797 370.587,311.300 370.511,310.200 370.514 C 309.100 370.517,308.697 370.595,309.305 370.687 " stroke="none" fill="#000000" fill-rule="evenodd"></path><path id="path3" d="M198.691 155.089 C 199.401 155.177,200.661 155.179,201.491 155.092 C 202.321 155.005,201.740 154.933,200.200 154.931 C 198.660 154.929,197.981 155.000,198.691 155.089 M341.775 350.500 L 340.600 351.800 341.900 350.625 C 342.615 349.979,343.200 349.394,343.200 349.325 C 343.200 349.016,342.870 349.288,341.775 350.500 M89.305 370.687 C 89.914 370.779,90.814 370.777,91.305 370.682 C 91.797 370.587,91.300 370.511,90.200 370.514 C 89.100 370.517,88.697 370.595,89.305 370.687 M309.305 370.687 C 309.914 370.779,310.814 370.777,311.305 370.682 C 311.797 370.587,311.300 370.511,310.200 370.514 C 309.100 370.517,308.697 370.595,309.305 370.687 " stroke="none" fill="#000000" fill-rule="evenodd"></path><path id="path4" d="M198.691 155.089 C 199.401 155.177,200.661 155.179,201.491 155.092 C 202.321 155.005,201.740 154.933,200.200 154.931 C 198.660 154.929,197.981 155.000,198.691 155.089 M341.775 350.500 L 340.600 351.800 341.900 350.625 C 342.615 349.979,343.200 349.394,343.200 349.325 C 343.200 349.016,342.870 349.288,341.775 350.500 M89.305 370.687 C 89.914 370.779,90.814 370.777,91.305 370.682 C 91.797 370.587,91.300 370.511,90.200 370.514 C 89.100 370.517,88.697 370.595,89.305 370.687 M309.305 370.687 C 309.914 370.779,310.814 370.777,311.305 370.682 C 311.797 370.587,311.300 370.511,310.200 370.514 C 309.100 370.517,308.697 370.595,309.305 370.687 " stroke="none" fill="#000000" fill-rule="evenodd"></path></g></svg>